<?xml version="1.0" encoding="utf-8"?>
<!-- Generator: Adobe Illustrator 15.0.0, SVG Export Plug-In . SVG Version: 6.00 Build 0)  -->
<!DOCTYPE svg PUBLIC "-//W3C//DTD SVG 1.1//EN" "http://www.w3.org/Graphics/SVG/1.1/DTD/svg11.dtd">
<svg version="1.1" id="Layer_1" xmlns="http://www.w3.org/2000/svg" xmlns:xlink="http://www.w3.org/1999/xlink" x="0px" y="0px"
	 width="280px" height="170px" viewBox="0 0 280 170" enable-background="new 0 0 280 170" xml:space="preserve">
<g>
	<polygon fill="none" stroke="#E3E3E3" stroke-linecap="round" stroke-linejoin="round" stroke-miterlimit="10" points="
		222.5,41.43 222.5,63.328 244.396,85.227 266.293,63.328 266.293,41.43 244.396,19.532 	"/>
	<path fill="none" stroke="#E3E3E3" stroke-linecap="round" stroke-linejoin="round" stroke-miterlimit="10" d="M244.396,63.328
		L222.498,41.43L244.396,63.328z"/>
	<polyline fill="none" stroke="#E3E3E3" stroke-linecap="round" stroke-linejoin="round" stroke-miterlimit="10" points="
		266.293,41.43 244.396,63.328 244.396,85.227 	"/>
</g>
<g>
	<polygon fill="none" stroke="#E3E3E3" stroke-linecap="round" stroke-linejoin="round" stroke-miterlimit="10" points="
		222.5,107.125 222.5,129.023 244.396,150.92 266.293,129.023 266.293,107.125 244.396,85.227 	"/>
	<path fill="none" stroke="#E3E3E3" stroke-linecap="round" stroke-linejoin="round" stroke-miterlimit="10" d="M244.396,129.023
		l-21.898-21.898L244.396,129.023z"/>
	<polyline fill="none" stroke="#E3E3E3" stroke-linecap="round" stroke-linejoin="round" stroke-miterlimit="10" points="
		266.293,107.125 244.396,129.023 244.396,150.92 	"/>
</g>
<g>
	<polygon fill="none" stroke="#E3E3E3" stroke-linecap="round" stroke-linejoin="round" stroke-miterlimit="10" points="
		178.703,63.328 178.703,85.227 200.601,107.125 222.5,85.227 222.5,63.328 200.601,41.43 	"/>
	<path fill="none" stroke="#E3E3E3" stroke-linecap="round" stroke-linejoin="round" stroke-miterlimit="10" d="M200.601,85.227
		l-21.897-21.899L200.601,85.227z"/>
	<polyline fill="none" stroke="#E3E3E3" stroke-linecap="round" stroke-linejoin="round" stroke-miterlimit="10" points="
		222.5,63.328 200.601,85.227 200.601,107.125 	"/>
</g>
<circle fill="none" stroke="#E3E3E3" stroke-linecap="round" stroke-linejoin="round" stroke-miterlimit="10" cx="200.602" cy="63.328" r="5.475"/>
<g>
	
		<line fill="none" stroke="#E3E3E3" stroke-linecap="round" stroke-linejoin="round" stroke-miterlimit="10" x1="244.396" y1="33.219" x2="236.186" y2="41.43"/>
	
		<line fill="none" stroke="#E3E3E3" stroke-linecap="round" stroke-linejoin="round" stroke-miterlimit="10" x1="252.609" y1="41.43" x2="244.396" y2="33.219"/>
	
		<line fill="none" stroke="#E3E3E3" stroke-linecap="round" stroke-linejoin="round" stroke-miterlimit="10" x1="244.396" y1="49.643" x2="236.186" y2="41.43"/>
	
		<line fill="none" stroke="#E3E3E3" stroke-linecap="round" stroke-linejoin="round" stroke-miterlimit="10" x1="252.609" y1="41.43" x2="244.396" y2="49.643"/>
</g>
<polygon fill="none" stroke="#E3E3E3" stroke-linecap="round" stroke-linejoin="round" stroke-miterlimit="10" points="
	243.225,114.469 239.787,101.65 252.609,105.084 "/>
</svg>
