<?xml version="1.0" encoding="utf-8"?>
<!-- Generator: Adobe Illustrator 15.0.0, SVG Export Plug-In . SVG Version: 6.00 Build 0)  -->
<!DOCTYPE svg PUBLIC "-//W3C//DTD SVG 1.1//EN" "http://www.w3.org/Graphics/SVG/1.1/DTD/svg11.dtd">
<svg version="1.1" id="Layer_1" xmlns="http://www.w3.org/2000/svg" xmlns:xlink="http://www.w3.org/1999/xlink" x="0px" y="0px"
	 width="102px" height="30px" viewBox="0 0 102 30" enable-background="new 0 0 102 30" xml:space="preserve">
<path d="M1.475,28.73c-0.537,0-0.878-0.26-0.913-0.696c-0.008-0.111-0.001-0.245,0.019-0.364l0.383-2.015H0.502
	c-0.003,0-0.007-0.003-0.009-0.005c-0.002-0.004-0.004-0.006-0.003-0.01l0.085-0.457c0.001-0.006,0.007-0.01,0.013-0.01h0.474
	l0.198-1.039c0.001-0.006,0.006-0.01,0.013-0.01h0.51c0.004,0,0.008,0.001,0.01,0.004c0.002,0.004,0.003,0.008,0.003,0.012
	l-0.197,1.033h1.08c0.004,0,0.007,0.001,0.01,0.006c0.002,0.002,0.003,0.006,0.002,0.01l-0.085,0.455
	C2.605,25.65,2.6,25.656,2.594,25.656H1.507l-0.379,1.99c-0.005,0.059-0.013,0.17-0.006,0.252c0.022,0.287,0.28,0.346,0.492,0.346
	c0.157,0,0.322-0.036,0.49-0.107c0.004-0.001,0.009,0,0.013,0.002c0.004,0.004,0.006,0.01,0.005,0.014l-0.091,0.471
	c0,0.005-0.003,0.008-0.007,0.01C1.854,28.701,1.69,28.73,1.475,28.73z"/>
<path d="M5.854,28.672H5.338c-0.004,0-0.007-0.001-0.01-0.005c-0.002-0.003-0.003-0.007-0.002-0.011l0.37-1.969
	c0.023-0.106,0.033-0.266,0.023-0.387c-0.035-0.447-0.343-0.714-0.823-0.714c-0.543,0-1.029,0.468-1.156,1.112L3.369,28.66
	c-0.001,0.007-0.005,0.011-0.012,0.011H2.838c-0.003,0-0.007-0.001-0.009-0.005c-0.003-0.003-0.004-0.007-0.003-0.011l0.934-4.904
	c0.001-0.006,0.006-0.01,0.012-0.01h0.517c0.004,0,0.008,0.001,0.01,0.004s0.003,0.007,0.002,0.01L3.93,25.704
	C4.183,25.396,4.518,25.1,5.068,25.1c0.68,0,1.153,0.426,1.205,1.088c0.011,0.136-0.004,0.312-0.045,0.539l-0.36,1.936
	C5.866,28.667,5.861,28.672,5.854,28.672z"/>
<path d="M26.108,28.672h-0.813c-0.003,0-0.007-0.001-0.01-0.005c-0.002-0.003-0.003-0.007-0.002-0.011l0.377-1.969
	c0.019-0.121,0.026-0.26,0.019-0.353c-0.027-0.353-0.244-0.547-0.608-0.547c-0.427,0-0.764,0.345-0.859,0.877l-0.381,1.995
	c-0.001,0.007-0.006,0.011-0.013,0.011h-0.812c-0.004,0-0.007-0.001-0.01-0.005c-0.002-0.003-0.003-0.007-0.002-0.011l0.376-1.968
	c0.019-0.121,0.027-0.261,0.019-0.354c-0.027-0.354-0.244-0.547-0.609-0.547c-0.43,0-0.762,0.337-0.865,0.877l-0.375,1.995
	c-0.001,0.006-0.006,0.011-0.012,0.011h-0.819c-0.004,0-0.008-0.001-0.01-0.005c-0.002-0.003-0.003-0.007-0.002-0.011l0.67-3.547
	c0.001-0.006,0.006-0.012,0.012-0.012h0.812c0.004,0,0.008,0.002,0.01,0.006c0.002,0.002,0.003,0.006,0.003,0.01l-0.078,0.408
	c0.247-0.264,0.538-0.496,0.979-0.496c0.477,0,0.85,0.254,1.026,0.696c0.312-0.456,0.751-0.696,1.271-0.696
	c0.648,0,1.099,0.42,1.15,1.072c0.015,0.184-0.026,0.407-0.061,0.605l-0.004,0.021l-0.366,1.936
	C26.119,28.668,26.114,28.672,26.108,28.672z"/>
<path d="M33.842,28.672h-0.813c-0.004,0-0.008-0.001-0.01-0.005c-0.003-0.003-0.004-0.007-0.003-0.011l0.371-1.969
	c0.023-0.109,0.033-0.248,0.025-0.353c-0.027-0.349-0.264-0.547-0.649-0.547c-0.44,0-0.79,0.345-0.892,0.877l-0.375,1.995
	c-0.001,0.006-0.006,0.011-0.012,0.011h-0.819c-0.004,0-0.008-0.001-0.01-0.005c-0.002-0.003-0.003-0.007-0.002-0.011l0.67-3.548
	c0.001-0.006,0.006-0.01,0.012-0.01h0.813c0.003,0,0.007,0.002,0.01,0.004c0.003,0.004,0.003,0.008,0.002,0.012l-0.078,0.408
	c0.23-0.238,0.553-0.498,1.02-0.498c0.66,0,1.12,0.422,1.171,1.074c0.015,0.191-0.022,0.426-0.059,0.627l-0.359,1.936
	C33.854,28.667,33.848,28.672,33.842,28.672z"/>
<path d="M54.208,28.752c-0.964,0-1.688-0.654-1.763-1.59c-0.045-0.567,0.138-1.104,0.513-1.508c0.367-0.4,0.89-0.629,1.431-0.629
	c0.819,0,1.273,0.44,1.512,0.812c0.004,0.006,0.004,0.015-0.002,0.019l-0.6,0.43c-0.003,0.003-0.007,0.003-0.01,0.003
	c-0.004-0.001-0.007-0.003-0.01-0.006c-0.188-0.273-0.432-0.526-0.903-0.526c-0.269,0-0.54,0.126-0.743,0.348
	c-0.252,0.28-0.379,0.664-0.349,1.053c0.039,0.506,0.417,0.873,0.896,0.873c0.321,0,0.572-0.113,0.868-0.393
	c0.002-0.003,0.005-0.005,0.009-0.004c0.004,0,0.008,0.002,0.01,0.006l0.471,0.53c0.005,0.004,0.005,0.013,0,0.017
	C55.25,28.466,54.867,28.752,54.208,28.752z"/>
<path d="M56.838,28.672h-0.812c-0.004,0-0.008-0.001-0.01-0.005c-0.002-0.003-0.004-0.007-0.002-0.011l0.934-4.904
	c0.001-0.006,0.006-0.01,0.012-0.01h0.812c0.004,0,0.006,0.001,0.01,0.004c0.003,0.003,0.004,0.007,0.003,0.01l-0.935,4.905
	C56.85,28.668,56.846,28.672,56.838,28.672z"/>
<path d="M63.184,28.745c-0.664,0-1.127-0.421-1.178-1.072c-0.015-0.194,0.021-0.426,0.059-0.63l0.367-1.934
	c0-0.006,0.006-0.012,0.012-0.012h0.812c0.004,0,0.008,0.002,0.01,0.006c0.002,0.002,0.004,0.006,0.002,0.011l-0.375,1.968
	c-0.021,0.111-0.027,0.256-0.021,0.354c0.026,0.348,0.262,0.547,0.644,0.547c0.44,0,0.791-0.346,0.893-0.877l0.382-1.996
	c0.001-0.006,0.007-0.01,0.013-0.01h0.812c0.004,0,0.008,0.002,0.01,0.004c0.003,0.004,0.004,0.008,0.003,0.012l-0.67,3.547
	c-0.001,0.007-0.007,0.011-0.013,0.011h-0.813c-0.004,0-0.007-0.001-0.01-0.005c-0.002-0.003-0.003-0.007-0.002-0.011l0.075-0.414
	C63.969,28.482,63.65,28.745,63.184,28.745z"/>
<path d="M73.42,28.752c-0.771,0-1.592-0.525-1.671-1.529c-0.043-0.559,0.146-1.109,0.519-1.515c0.356-0.388,0.857-0.608,1.373-0.608
	c0.846,0,1.275,0.514,1.457,0.817c0.004,0.006,0.002,0.015-0.004,0.019l-0.396,0.264c-0.005,0.004-0.015,0.002-0.019-0.004
	c-0.191-0.287-0.484-0.613-1.037-0.613c-0.346,0-0.686,0.156-0.932,0.434c-0.294,0.317-0.441,0.752-0.406,1.191
	c0.055,0.698,0.596,1.064,1.104,1.064c0.36,0,0.664-0.142,0.983-0.455c0.002-0.002,0.006-0.002,0.01-0.002l0,0
	c0.002,0,0.007,0,0.009,0.004l0.327,0.334c0.006,0.007,0.006,0.015,0,0.021C74.352,28.566,73.932,28.752,73.42,28.752z"/>
<path d="M84.389,28.672H83.87c-0.004,0-0.007-0.001-0.011-0.005c-0.002-0.003-0.002-0.007-0.002-0.011l0.377-1.969
	c0.018-0.117,0.023-0.275,0.016-0.387c-0.034-0.447-0.318-0.714-0.764-0.714c-0.506,0-0.979,0.478-1.102,1.112l-0.363,1.961
	c-0.002,0.006-0.006,0.011-0.014,0.011H81.49c-0.004,0-0.008-0.001-0.01-0.005c-0.002-0.003-0.004-0.007-0.004-0.011l0.371-1.968
	c0.023-0.107,0.033-0.267,0.023-0.388c-0.034-0.44-0.33-0.714-0.77-0.714c-0.506,0-0.98,0.479-1.104,1.112l-0.369,1.961
	c-0.001,0.007-0.007,0.011-0.013,0.011h-0.518c-0.005,0-0.009-0.001-0.011-0.005c-0.003-0.003-0.004-0.007-0.003-0.011l0.656-3.473
	c0.001-0.007,0.006-0.011,0.012-0.011h0.518c0.004,0,0.008,0.001,0.01,0.005c0.003,0.002,0.004,0.006,0.003,0.01l-0.095,0.517
	c0.302-0.364,0.605-0.604,1.084-0.604c0.502,0,0.894,0.285,1.053,0.768c0.295-0.501,0.757-0.768,1.332-0.768
	c0.643,0,1.107,0.438,1.158,1.088c0.011,0.133-0.015,0.287-0.037,0.438c-0.006,0.034-0.012,0.068-0.016,0.102l-0.365,1.937
	C84.398,28.668,84.395,28.672,84.389,28.672z"/>
<path d="M96.061,28.672h-0.52c-0.004,0-0.007-0.001-0.01-0.005c-0.002-0.003-0.004-0.007-0.004-0.011l0.371-1.969
	c0.023-0.106,0.033-0.266,0.023-0.387c-0.035-0.447-0.344-0.714-0.824-0.714c-0.541,0-1.027,0.468-1.154,1.112l-0.371,1.961
	c-0.002,0.007-0.006,0.011-0.012,0.011h-0.519c-0.004,0-0.008-0.001-0.011-0.005c-0.002-0.003-0.004-0.007-0.002-0.011l0.654-3.474
	c0.002-0.006,0.008-0.01,0.014-0.01h0.517c0.004,0,0.009,0.001,0.011,0.005c0.002,0.003,0.004,0.007,0.002,0.011l-0.095,0.516
	c0.253-0.307,0.591-0.605,1.14-0.605c0.68,0,1.152,0.428,1.203,1.088c0.012,0.137-0.004,0.312-0.045,0.539l-0.359,1.937
	C96.07,28.667,96.064,28.672,96.061,28.672z"/>
<path d="M97.016,29.768c-0.283,0-0.533-0.078-0.785-0.244c-0.006-0.004-0.006-0.013-0.004-0.018l0.252-0.389
	c0.002-0.003,0.004-0.006,0.008-0.006c0.005,0,0.008,0,0.011,0.003c0.13,0.095,0.366,0.171,0.538,0.171
	c0.311,0,0.555-0.184,0.843-0.628l-0.901-3.468c0-0.004,0-0.008,0.002-0.012c0.002-0.003,0.006-0.005,0.01-0.005h0.537
	c0.007,0,0.012,0.004,0.014,0.011l0.702,2.867l1.625-2.871c0.003-0.005,0.007-0.007,0.012-0.007h0.584
	c0.005,0,0.009,0.002,0.013,0.007c0.002,0.004,0.002,0.008-0.002,0.012l-2.097,3.594C97.949,29.482,97.557,29.768,97.016,29.768z"/>
<path d="M17.99,28.672h-0.532c-0.004,0-0.007-0.001-0.01-0.005c-0.003-0.003-0.003-0.007-0.003-0.011l0.813-4.292l-0.913,0.27
	c-0.003,0-0.007,0-0.011-0.002c-0.003-0.002-0.005-0.006-0.005-0.01l-0.05-0.463c0-0.007,0.003-0.013,0.008-0.015l1.232-0.402
	c0.001,0,0.002,0,0.004,0h0.396c0.003,0,0.007,0.001,0.01,0.004c0.002,0.003,0.003,0.007,0.002,0.01L18,28.661
	C18.001,28.668,17.996,28.672,17.99,28.672z"/>
<path d="M8.462,28.752c-0.927,0-1.597-0.598-1.667-1.488c-0.044-0.572,0.157-1.16,0.54-1.576C7.689,25.303,8.148,25.1,8.662,25.1
	c0.937,0,1.408,0.674,1.46,1.342c0.017,0.221-0.006,0.441-0.069,0.664c-0.002,0.004-0.007,0.009-0.012,0.009H7.332
	c-0.001,0.043,0.002,0.086,0.005,0.127c0.05,0.629,0.488,1.036,1.118,1.036c0.461,0,0.745-0.163,1.027-0.407
	c0.002-0.002,0.006-0.003,0.009-0.003c0.003,0,0.006,0.002,0.009,0.005l0.295,0.343c0.004,0.005,0.004,0.014-0.001,0.018
	C9.525,28.475,9.131,28.752,8.462,28.752z M7.373,26.698h2.211c0.015-0.064,0.018-0.151,0.01-0.255
	C9.561,26.018,9.3,25.561,8.67,25.561c-0.349,0-0.669,0.144-0.925,0.412C7.569,26.164,7.441,26.414,7.373,26.698z"/>
<path d="M28.051,28.745c-0.636,0-1.111-0.401-1.157-0.979c-0.026-0.34,0.065-0.63,0.272-0.863c0.265-0.278,0.688-0.434,1.192-0.434
	c0.349,0,0.701,0.055,1.106,0.172l0.012-0.049c0.014-0.089,0.025-0.187,0.017-0.291c-0.027-0.35-0.302-0.525-0.815-0.525
	c-0.32,0-0.639,0.064-0.947,0.193c-0.003,0.001-0.007,0.001-0.01,0c-0.003-0.002-0.006-0.005-0.007-0.009l-0.186-0.657
	c-0.002-0.007,0.001-0.014,0.007-0.016c0.396-0.158,0.805-0.235,1.25-0.235c0.921,0,1.459,0.394,1.515,1.106
	c0.013,0.166-0.003,0.32-0.034,0.521l-0.375,1.98c-0.001,0.007-0.006,0.011-0.013,0.011h-0.786c-0.004,0-0.007-0.001-0.01-0.005
	c-0.002-0.003-0.003-0.007-0.003-0.012l0.076-0.424C28.862,28.572,28.49,28.745,28.051,28.745z M28.521,27.02
	c-0.284,0-0.511,0.078-0.658,0.23c-0.102,0.111-0.15,0.257-0.137,0.421c0.022,0.281,0.258,0.465,0.603,0.465
	c0.482,0,0.919-0.36,1.016-0.836l0.033-0.149C29.214,27.098,28.897,27.02,28.521,27.02z"/>
<path d="M35.772,28.745c-0.636,0-1.111-0.401-1.156-0.979c-0.027-0.34,0.065-0.63,0.272-0.863c0.265-0.278,0.688-0.434,1.191-0.434
	c0.35,0,0.702,0.055,1.106,0.172l0.012-0.049c0.014-0.089,0.025-0.187,0.017-0.291c-0.027-0.35-0.301-0.525-0.815-0.525
	c-0.321,0-0.639,0.064-0.947,0.193c-0.004,0.001-0.008,0.001-0.011,0c-0.003-0.002-0.005-0.005-0.006-0.009l-0.186-0.657
	c-0.001-0.007,0.001-0.014,0.007-0.016c0.396-0.158,0.804-0.235,1.249-0.235c0.922,0,1.46,0.394,1.516,1.106
	c0.012,0.166-0.003,0.32-0.034,0.521l-0.376,1.98c-0.001,0.007-0.006,0.011-0.012,0.011h-0.786c-0.004,0-0.007-0.001-0.01-0.005
	c-0.002-0.003-0.003-0.007-0.002-0.012l0.076-0.424C36.583,28.572,36.211,28.745,35.772,28.745z M36.242,27.02
	c-0.284,0-0.512,0.078-0.658,0.23c-0.103,0.111-0.15,0.257-0.137,0.421c0.021,0.281,0.258,0.465,0.602,0.465
	c0.483,0,0.919-0.36,1.017-0.836l0.032-0.149C36.936,27.098,36.619,27.02,36.242,27.02z"/>
<path d="M40.047,29.76c-0.689,0-1.388-0.203-1.871-0.547c-0.002-0.003-0.004-0.006-0.005-0.009c0-0.003,0-0.007,0.002-0.009
	l0.406-0.563c0.004-0.006,0.012-0.008,0.018-0.004c0.408,0.289,0.887,0.448,1.351,0.448c0.362,0,0.642-0.104,0.833-0.312
	c0.146-0.158,0.242-0.379,0.31-0.714l0.036-0.174c-0.373,0.363-0.709,0.513-1.154,0.513c-0.683,0-1.41-0.445-1.476-1.296
	c-0.043-0.557,0.136-1.086,0.506-1.487c0.34-0.369,0.817-0.58,1.308-0.58c0.684,0,1.011,0.363,1.218,0.688l0.112-0.604
	c0.001-0.006,0.007-0.012,0.012-0.012h0.813c0.003,0,0.007,0.002,0.009,0.006c0.002,0.002,0.003,0.006,0.002,0.011l-0.55,2.928
	c-0.121,0.634-0.251,0.94-0.513,1.218C41.099,29.602,40.664,29.76,40.047,29.76z M40.444,25.742c-0.296,0-0.578,0.123-0.789,0.346
	c-0.218,0.235-0.323,0.542-0.299,0.863c0.037,0.461,0.369,0.747,0.867,0.747c0.316,0,0.621-0.134,0.835-0.364
	c0.216-0.236,0.318-0.516,0.295-0.811C41.318,26.062,40.944,25.742,40.444,25.742z"/>
<path d="M44.485,28.752c-1.002,0-1.671-0.6-1.746-1.562c-0.044-0.562,0.155-1.146,0.534-1.556c0.361-0.393,0.858-0.608,1.399-0.608
	c0.438,0,0.815,0.14,1.091,0.402c0.257,0.246,0.416,0.596,0.446,0.986c0.02,0.251-0.013,0.513-0.096,0.759
	c-0.001,0.005-0.006,0.009-0.012,0.009h-2.566c0.048,0.551,0.414,0.879,0.978,0.879c0.319,0,0.572-0.098,0.872-0.338
	c0.005-0.005,0.013-0.005,0.018,0.002l0.43,0.518c0.004,0.005,0.004,0.013-0.001,0.018C45.461,28.591,45.021,28.752,44.485,28.752z
	 M43.584,26.617h1.815c0.015-0.062,0.019-0.146,0.012-0.235c-0.034-0.418-0.312-0.667-0.747-0.667c-0.304,0-0.575,0.12-0.783,0.348
	C43.744,26.21,43.642,26.4,43.584,26.617z"/>
<path d="M48.05,28.745c-0.393,0-0.757-0.146-1.028-0.409c-0.284-0.277-0.452-0.664-0.488-1.12c-0.048-0.618,0.138-1.19,0.524-1.608
	c0.34-0.369,0.812-0.582,1.293-0.582c0.542,0,0.949,0.225,1.245,0.685l0.369-1.957c0.001-0.006,0.006-0.01,0.012-0.01h0.813
	c0.003,0,0.007,0.001,0.009,0.004c0.003,0.003,0.004,0.007,0.003,0.01l-0.927,4.905c-0.001,0.007-0.006,0.011-0.012,0.011H49.05
	c-0.003,0-0.007-0.001-0.009-0.005c-0.003-0.003-0.004-0.007-0.003-0.011l0.083-0.427C48.793,28.581,48.452,28.745,48.05,28.745z
	 M48.5,25.749c-0.286,0-0.555,0.12-0.757,0.339c-0.25,0.271-0.374,0.661-0.342,1.072c0.041,0.523,0.395,0.861,0.902,0.861
	c0.298,0,0.587-0.135,0.794-0.365c0.258-0.279,0.389-0.653,0.36-1.025C49.417,26.111,49.023,25.749,48.5,25.749z"/>
<path d="M59.67,28.752c-0.494,0-0.93-0.16-1.258-0.462c-0.316-0.293-0.512-0.708-0.549-1.169c-0.041-0.537,0.146-1.073,0.516-1.475
	c0.361-0.4,0.861-0.621,1.404-0.621c0.496,0,0.93,0.16,1.258,0.463c0.316,0.293,0.512,0.711,0.548,1.174
	c0.043,0.54-0.146,1.074-0.515,1.468C60.712,28.531,60.214,28.752,59.67,28.752z M59.792,25.755c-0.274,0-0.542,0.121-0.75,0.34
	c-0.239,0.253-0.375,0.645-0.349,0.997c0.045,0.574,0.416,0.93,0.969,0.93c0.283,0,0.559-0.123,0.75-0.338
	c0.238-0.252,0.375-0.646,0.348-0.998C60.715,26.111,60.346,25.755,59.792,25.755z"/>
<path d="M67.354,28.745c-0.393,0-0.756-0.146-1.027-0.409c-0.282-0.277-0.451-0.664-0.487-1.12c-0.048-0.618,0.138-1.19,0.522-1.608
	c0.342-0.369,0.812-0.582,1.293-0.582c0.544,0,0.951,0.225,1.246,0.685l0.369-1.957c0-0.006,0.006-0.01,0.013-0.01h0.812
	c0.004,0,0.008,0.001,0.012,0.004c0.002,0.003,0.002,0.007,0.002,0.01l-0.926,4.905c-0.002,0.007-0.008,0.011-0.014,0.011h-0.812
	c-0.004,0-0.008-0.001-0.01-0.005c-0.003-0.003-0.004-0.007-0.003-0.011l0.083-0.427C68.098,28.581,67.756,28.745,67.354,28.745z
	 M67.805,25.749c-0.287,0-0.556,0.12-0.757,0.339c-0.25,0.271-0.374,0.661-0.342,1.072c0.041,0.523,0.396,0.861,0.901,0.861
	c0.299,0,0.588-0.135,0.795-0.365c0.257-0.279,0.389-0.653,0.359-1.025C68.721,26.111,68.327,25.749,67.805,25.749z"/>
<path d="M76.968,28.752c-0.938,0-1.641-0.646-1.713-1.568c-0.043-0.541,0.146-1.076,0.515-1.469
	c0.364-0.396,0.854-0.615,1.379-0.615c0.938,0,1.646,0.644,1.72,1.562c0.041,0.531-0.146,1.066-0.515,1.475
	C77.992,28.527,77.488,28.752,76.968,28.752z M77.148,25.581c-0.352,0-0.687,0.151-0.943,0.433
	c-0.284,0.311-0.436,0.739-0.402,1.153c0.053,0.676,0.499,1.097,1.162,1.097c0.355,0,0.692-0.152,0.944-0.426
	c0.284-0.309,0.435-0.74,0.403-1.152C78.259,26.004,77.812,25.581,77.148,25.581z"/>
<path d="M85.458,29.746h-0.517c-0.004,0-0.008-0.001-0.01-0.004c-0.004-0.004-0.005-0.008-0.004-0.012l0.859-4.547
	c0.001-0.007,0.007-0.011,0.013-0.011h0.519c0.004,0,0.008,0.001,0.01,0.005c0.003,0.002,0.004,0.006,0.003,0.01l-0.104,0.549
	c0.354-0.428,0.762-0.639,1.242-0.639c0.817,0,1.436,0.61,1.504,1.483c0.047,0.606-0.144,1.188-0.522,1.603
	c-0.339,0.365-0.788,0.567-1.269,0.567c-0.76,0-1.16-0.444-1.365-0.834l-0.346,1.817C85.471,29.742,85.464,29.746,85.458,29.746z
	 M87.355,25.581c-0.361,0-0.721,0.167-0.98,0.46c-0.302,0.326-0.457,0.748-0.424,1.16C86,27.82,86.482,28.27,87.098,28.27
	c0.344,0,0.668-0.143,0.912-0.399c0.289-0.319,0.434-0.772,0.396-1.239C88.357,26.004,87.936,25.581,87.355,25.581z"/>
<path d="M90.488,28.745c-0.537,0-1.139-0.304-1.189-0.974c-0.025-0.328,0.066-0.615,0.268-0.836
	c0.259-0.278,0.683-0.434,1.191-0.434c0.377,0,0.783,0.061,1.24,0.186l0.012-0.066c0.02-0.105,0.028-0.232,0.021-0.319
	c-0.035-0.454-0.374-0.692-0.983-0.692c-0.401,0-0.712,0.091-0.962,0.18c-0.004,0.001-0.007,0.001-0.01-0.001
	c-0.003-0.001-0.006-0.004-0.008-0.007l-0.119-0.43c-0.002-0.007,0.001-0.014,0.008-0.017c0.377-0.146,0.729-0.209,1.137-0.209
	c0.874,0,1.406,0.396,1.461,1.086c0.012,0.146-0.002,0.315-0.037,0.481l-0.369,1.968c-0.002,0.006-0.008,0.011-0.014,0.011h-0.504
	c-0.003,0-0.007-0.001-0.009-0.005c-0.003-0.003-0.004-0.007-0.003-0.011l0.095-0.494C91.391,28.549,90.979,28.745,90.488,28.745z
	 M90.809,26.911c-0.344,0-0.617,0.099-0.789,0.286c-0.131,0.136-0.191,0.312-0.177,0.513c0.028,0.368,0.332,0.606,0.775,0.606
	c0.608,0,1.155-0.44,1.271-1.023l0.047-0.23C91.585,26.965,91.186,26.911,90.809,26.911z"/>
<path d="M15.153,28.672h-0.511c-0.004,0-0.007-0.001-0.01-0.005c-0.002-0.003-0.003-0.007-0.002-0.011l0.222-1.167h-1.193
	l-0.223,1.172c-0.001,0.007-0.006,0.011-0.012,0.011h-0.512c-0.004,0-0.007-0.001-0.01-0.005c-0.002-0.003-0.003-0.007-0.003-0.011
	l0.223-1.167H12.25c-0.004,0-0.007-0.003-0.01-0.005c-0.003-0.004-0.003-0.008-0.002-0.01l0.096-0.504
	c0.001-0.007,0.005-0.011,0.012-0.011h0.876l0.263-1.383h-0.871c-0.004,0-0.007-0.002-0.01-0.005
	c-0.003-0.004-0.004-0.008-0.003-0.01l0.096-0.504c0.001-0.004,0.006-0.01,0.012-0.01h0.875l0.224-1.172
	c0.001-0.006,0.006-0.01,0.013-0.01h0.511c0.004,0,0.007,0,0.01,0.004c0.002,0.002,0.003,0.006,0.002,0.011l-0.222,1.167h1.193
	l0.224-1.172c0.001-0.006,0.006-0.01,0.012-0.01h0.512c0.004,0,0.007,0,0.01,0.004c0.002,0.002,0.003,0.006,0.003,0.011
	l-0.222,1.167h0.849c0.003,0,0.007,0.002,0.009,0.006c0.002,0.002,0.003,0.006,0.003,0.01l-0.096,0.502
	c-0.001,0.006-0.006,0.011-0.012,0.011h-0.854L15.49,26.96h0.849c0.003,0,0.007,0.001,0.01,0.004
	c0.002,0.004,0.003,0.009,0.002,0.011l-0.096,0.504c-0.001,0.006-0.006,0.011-0.012,0.011h-0.854l-0.223,1.172
	C15.165,28.668,15.159,28.672,15.153,28.672z M13.759,26.961h1.193l0.263-1.383h-1.193L13.759,26.961z"/>
<path d="M11.745,5.947c-0.398,0.839-0.24,1.529,0.354,1.539c0.594,0.011,1.399-0.661,1.797-1.5c0.398-0.841,0.24-1.53-0.354-1.541
	C12.947,4.436,12.143,5.107,11.745,5.947z M16.586,2.916c0.005,0.002,0.008,0.007,0.008,0.013c0,0.002,0,0.004,0,0.005
	c-0.355,1.006-0.945,2.151-1.529,3.02c-1.229,1.826-2.996,2.978-3.942,2.572c-0.947-0.405-0.719-2.216,0.512-4.043
	c0.277-0.41,0.581-0.786,0.895-1.118c0.002-0.002,0.004-0.006,0.004-0.009c0-0.008-0.006-0.014-0.014-0.014c0,0-0.001,0-0.002,0
	c-0.386,0.053-0.778,0.129-1.174,0.23c-0.003,0-0.005,0.002-0.007,0.004C7.181,8.673,5.413,15.292,5.656,21.195l0,0
	c0,0.009-0.006,0.015-0.014,0.015c-0.002,0-0.004,0-0.005,0c-2.45-0.987-4.24-3.354-4.427-6.351l-0.002-0.035
	C0.899,9.492,5.149,4.031,10.702,2.626C12.854,2.08,14.887,2.224,16.586,2.916z"/>
<path d="M15.015,17.294c-0.404,0.281-0.825,0.54-1.26,0.772c-0.002,0-0.004,0.002-0.006,0.002c-0.008,0-0.014-0.006-0.014-0.014
	c-0.082-1.279-0.357-2.521-0.834-3.552c-1.271-2.754-3.493-2.967-4.961-0.472c-0.898,1.525-1.307,3.712-1.196,5.811
	c0,0.008,0.004,0.012,0.009,0.014c1.557,0.487,3.352,0.541,5.266,0.06c5.545-1.414,9.787-6.869,9.478-12.195
	c-0.271-4.679-3.961-7.701-8.613-7.421c-0.003,0-0.006,0.001-0.009,0.004c-0.453,0.457-0.876,0.919-1.273,1.386
	c-0.002,0.003-0.003,0.006-0.003,0.009c0,0.008,0.006,0.015,0.014,0.015c0,0,0.001,0,0.002,0c2.726-0.345,4.911,0.208,6.336,1.344
	c0.004,0.002,0.006,0.007,0.006,0.011c0,0.003-0.001,0.006-0.002,0.008C13.041,10,13.649,13.946,15.02,17.277
	c0,0.002,0.001,0.004,0.001,0.006C15.021,17.288,15.019,17.292,15.015,17.294z"/>
<path d="M60.84,9.372c1.159,0,2.016,0.251,2.43,0.486c0.006,0.003,0.008,0.009,0.006,0.014l-0.399,2.101
	c0,0.004-0.004,0.008-0.008,0.01c-0.005,0.002-0.009,0.002-0.013,0c-0.469-0.256-1.279-0.528-2.149-0.528
	c-0.731,0-1.208,0.307-1.208,0.819c0,0.368,0.363,0.698,1.136,1.073c1.005,0.502,2.14,1.246,2.14,2.588
	c0,0.879-0.291,1.611-0.869,2.185c-0.766,0.761-2.01,1.175-3.504,1.164c-1.151-0.019-2.313-0.317-2.896-0.738
	c-0.005-0.003-0.007-0.009-0.006-0.015l0.402-2.112c0-0.004,0.004-0.009,0.009-0.011c0.004-0.001,0.009-0.001,0.013,0.002
	c0.622,0.391,1.85,0.811,2.749,0.811c0.698,0,1.168-0.32,1.168-0.838c0-0.469-0.33-0.795-1.175-1.208
	c-1.335-0.667-2.003-1.514-2.003-2.512C56.659,10.697,58.331,9.372,60.84,9.372z"/>
<path d="M45.188,9.391c0.712,0,1.438,0.124,1.943,0.331c0.006,0.002,0.01,0.009,0.009,0.016L46.709,12
	c-0.001,0.004-0.004,0.008-0.008,0.01c-0.004,0.001-0.009,0.002-0.013-0.001c-0.435-0.244-0.938-0.361-1.539-0.361
	c-2.007,0-3.203,1.75-3.203,3.436c0,1.432,0.956,1.941,1.846,1.941c0.797,0,1.473-0.174,2.333-0.596
	c0.005-0.003,0.011-0.002,0.015,0.002c0.005,0.002,0.006,0.008,0.005,0.014l-0.44,2.322c-0.001,0.004-0.004,0.008-0.008,0.012
	c-0.652,0.313-1.662,0.504-2.7,0.504c-2.436,0-4.006-1.525-4.006-3.889C38.992,11.971,41.654,9.391,45.188,9.391z"/>
<path d="M33.777,12.078c-0.758,0.757-1.326,2.18-1.326,3.313c0,0.995,0.37,1.614,1.011,1.614c1.025,0,1.91-1.071,2.213-2.644
	c0.069-0.351,0.138-0.708,0.188-1.026c0.05-0.317,0.081-0.597,0.072-0.792c-0.033-0.671-0.382-1.032-1.008-1.032
	C34.543,11.511,34.146,11.708,33.777,12.078z M34.823,19.084c-0.002-0.004-0.003-0.008-0.002-0.012l0.083-0.426
	c0.075-0.381,0.385-0.907,0.502-1.08l0.018-0.032c0.041-0.091-0.019-0.2-0.093-0.231c-0.088-0.039-0.199-0.009-0.241,0.083
	l-0.012,0.036c-0.05,0.203-0.154,0.671-0.592,1.07c-0.555,0.508-1.324,0.81-2.162,0.81c-1.874,0-2.72-1.661-2.721-3.327
	c-0.001-1.892,0.742-3.764,1.986-5.009c1.042-1.043,2.387-1.594,3.891-1.594c1.144,0.004,1.991,0.336,2.521,0.979
	c0.785,0.951,0.72,2.379,0.524,3.417l-1.014,5.31c-0.001,0.007-0.007,0.012-0.014,0.012h-2.665
	C34.83,19.089,34.826,19.087,34.823,19.084z"/>
<path d="M67.434,17.161c1.481,0,2.569-2.102,2.569-3.958c0-0.449-0.104-1.537-1.14-1.537c-1.051,0-1.937,1.196-2.279,3.011
	C66.466,15.299,66.137,17.161,67.434,17.161z M69.859,9.372c1.865,0,3.074,1.414,3.074,3.619c0,2.312-1.109,4.682-3.109,5.749
	c-1.553,0.826-2.965,0.641-3.665,0.097c-0.168-0.13-0.207-0.474-0.226-0.608l-0.01-0.035c-0.031-0.096-0.145-0.133-0.232-0.103
	c-0.074,0.028-0.145,0.119-0.112,0.216l0.015,0.031c0.127,0.229,0.223,0.409,0.188,0.598l-0.604,3.189
	c-0.001,0.006-0.007,0.012-0.014,0.012h-2.791c-0.004,0-0.008-0.002-0.012-0.006c-0.002-0.003-0.004-0.007-0.002-0.011l2.396-12.603
	c0.001-0.006,0.007-0.011,0.015-0.011l2.455,0.001c0.004,0,0.008,0.002,0.01,0.005c0.002,0.004,0.004,0.008,0.002,0.012
	l-0.082,0.435v0.003c-0.131,0.686-0.336,0.95-0.467,1.113l-0.021,0.03c-0.048,0.088,0.005,0.184,0.075,0.224
	c0.069,0.039,0.194,0.041,0.243-0.047l0.015-0.033c0.069-0.199,0.229-0.688,0.617-1.021l0.002-0.001
	C68.264,9.674,69.046,9.372,69.859,9.372z"/>
<path d="M48.941,6.23h2.773c0.004,0,0.009,0.002,0.011,0.005c0.002,0.004,0.004,0.008,0.002,0.012l-1.446,7.606
	c0,0.005,0,0.01,0.005,0.012c0.004,0.002,0.009,0,0.012-0.003L54.02,9.57c0.004-0.003,0.008-0.005,0.012-0.005h3.041
	c0.005,0,0.01,0.003,0.012,0.009c0.001,0.002,0.002,0.004,0.002,0.006c0,0.003-0.002,0.007-0.004,0.009l-3.861,4.35l2.355,5.112
	c0.001,0.002,0.001,0.004,0.001,0.006s-0.001,0.006-0.002,0.008c-0.003,0.004-0.007,0.006-0.013,0.006h-3.002
	c-0.004,0-0.01-0.002-0.013-0.008l-2.278-5.054c-0.001-0.004-0.005-0.006-0.01-0.006c-0.005,0-0.008,0.004-0.009,0.008l-0.959,5.048
	c-0.001,0.008-0.007,0.012-0.014,0.012h-2.772c-0.004,0-0.008-0.002-0.011-0.004c-0.003-0.004-0.003-0.008-0.003-0.012l2.436-12.812
	C48.929,6.235,48.935,6.23,48.941,6.23z"/>
<path d="M30.072,9.352c0.167,0,0.373,0.018,0.522,0.044c0.003,0.001,0.006,0.003,0.009,0.006c0.002,0.003,0.002,0.007,0.002,0.011
	l-0.543,2.732c0,0.003-0.002,0.007-0.006,0.009c-0.003,0.002-0.007,0.002-0.01,0.002c-0.098-0.021-0.255-0.044-0.439-0.044
	c-1.914,0-2.661,1.872-2.951,3.419l-0.681,3.638c-0.001,0.007-0.007,0.011-0.014,0.011H23.17c-0.004,0-0.009-0.002-0.011-0.005
	c-0.003-0.003-0.004-0.007-0.003-0.012l1.823-9.586c0.001-0.007,0.007-0.012,0.014-0.012h2.454c0.004,0,0.008,0.001,0.011,0.005
	c0.002,0.002,0.003,0.006,0.003,0.009l-0.124,0.649l-0.001,0.007c-0.116,0.612-0.305,0.973-0.426,1.145l-0.018,0.032
	c-0.042,0.091,0.024,0.186,0.097,0.219c0.073,0.034,0.19,0.025,0.233-0.065l0.012-0.034c0.055-0.204,0.166-0.644,0.544-1.069
	C28.433,9.743,29.221,9.352,30.072,9.352z"/>
<path d="M96.335,12.234c0-0.491-0.405-0.8-1.015-0.8c-0.938,0-1.614,0.592-1.975,1.289c-0.259,0.501-0.351,0.551-0.589,0.702
	l-0.03,0.021c-0.078,0.064-0.052,0.178,0,0.24c0.053,0.061,0.156,0.104,0.234,0.039l0.023-0.027c0.193-0.231,0.24-0.317,0.979-0.348
	c1.133-0.045,1.811-0.216,2.141-0.544C96.26,12.653,96.335,12.465,96.335,12.234z M92.445,15.187
	c0.256,0.232,0.428,0.571,0.455,0.679c0.049,0.183,0.121,0.364,0.223,0.507c0.365,0.461,1.01,0.712,1.812,0.712
	c1.168,0,2.183-0.283,3.285-0.919c0.006-0.003,0.012-0.003,0.016,0c0.004,0.004,0.006,0.008,0.006,0.014l-0.444,2.338
	c-0.001,0.004-0.004,0.008-0.007,0.01c-1.344,0.684-2.918,0.758-3.534,0.758c-2.623,0-4.123-1.459-4.123-4.006
	c0-1.469,0.539-2.94,1.479-4.038c1.029-1.205,2.473-1.868,4.059-1.868c1.982,0,3.309,1.153,3.309,2.863
	c0,0.791-0.258,1.44-0.764,1.935c-0.854,0.832-2.396,1.25-4.71,1.263c-0.555,0-0.682-0.28-0.778-0.466l-0.021-0.03
	c-0.062-0.08-0.182-0.062-0.243-0.013c-0.063,0.05-0.106,0.158-0.043,0.237L92.445,15.187z"/>
<path d="M98.991,18.098c-0.052,0.582,0.372,1.045,0.952,1.045c0.591,0,1.119-0.482,1.172-1.074c0.053-0.582-0.373-1.049-0.951-1.049
	C99.572,17.02,99.046,17.504,98.991,18.098z M98.824,18.082c0.062-0.68,0.66-1.229,1.34-1.229c0.678,0,1.18,0.549,1.118,1.229
	c-0.062,0.679-0.661,1.229-1.339,1.229C99.264,19.311,98.764,18.761,98.824,18.082z M99.784,17.355c0-0.002,0.003-0.004,0.006-0.004
	h0.31h0.002c0.08,0,0.131,0.002,0.172,0.004c0.054,0.004,0.095,0.014,0.136,0.026c0.155,0.054,0.245,0.177,0.245,0.335
	c0,0.027-0.004,0.057-0.01,0.085c-0.035,0.192-0.156,0.351-0.383,0.412l0.197,0.584c0,0,0,0,0,0.002c0,0,0,0.002-0.001,0.002
	c-0.001,0.003-0.003,0.003-0.005,0.003h-0.2c-0.003,0-0.005-0.002-0.006-0.003l-0.188-0.556l-0.121,0.003h-0.006h-0.137L99.691,18.8
	c0,0.003-0.004,0.005-0.006,0.005H99.52c0,0-0.002,0-0.004-0.003c0,0-0.002-0.002-0.002-0.004l0.104-0.557l0.001-0.007l0.083-0.437
	L99.784,17.355z M100.064,17.53H99.93l-0.051,0.271l-0.052,0.269h0.134h0.016c0.068,0,0.112-0.002,0.148-0.004
	c0.04-0.002,0.07-0.008,0.102-0.019c0.129-0.037,0.219-0.13,0.24-0.249c0.021-0.117-0.031-0.21-0.145-0.246
	c-0.029-0.012-0.057-0.016-0.096-0.02c-0.035-0.002-0.08-0.002-0.147-0.004L100.064,17.53L100.064,17.53z"/>
<path d="M88.705,9.391c0.713,0,1.439,0.124,1.943,0.331c0.006,0.002,0.011,0.009,0.01,0.016L90.227,12
	c-0.002,0.004-0.004,0.008-0.01,0.01c-0.004,0.001-0.009,0.002-0.013-0.001c-0.435-0.244-0.938-0.361-1.538-0.361
	c-2.007,0-3.203,1.75-3.203,3.436c0,1.432,0.956,1.941,1.848,1.941c0.797,0,1.473-0.174,2.332-0.596
	c0.006-0.003,0.012-0.002,0.017,0.002c0.004,0.002,0.006,0.008,0.005,0.014l-0.439,2.322c-0.002,0.004-0.004,0.008-0.009,0.012
	c-0.651,0.313-1.661,0.504-2.698,0.504c-2.438,0-4.008-1.525-4.008-3.889C82.51,11.971,85.173,9.391,88.705,9.391z"/>
<path d="M77.296,12.078c-0.758,0.757-1.325,2.18-1.325,3.313c0,0.995,0.37,1.614,1.01,1.614c1.025,0,1.91-1.071,2.213-2.644
	c0.068-0.351,0.138-0.708,0.188-1.026c0.05-0.317,0.081-0.597,0.072-0.792c-0.033-0.671-0.384-1.032-1.009-1.032
	C78.061,11.511,77.664,11.708,77.296,12.078z M78.341,19.084c-0.003-0.004-0.003-0.008-0.003-0.012l0.084-0.426
	c0.076-0.381,0.387-0.907,0.503-1.08l0.019-0.032c0.041-0.091-0.02-0.2-0.094-0.231c-0.088-0.039-0.197-0.009-0.238,0.083
	L78.6,17.422c-0.052,0.203-0.154,0.671-0.594,1.07c-0.555,0.508-1.324,0.81-2.16,0.81c-1.875,0-2.722-1.661-2.723-3.327
	c-0.001-1.892,0.74-3.764,1.984-5.009C76.15,9.922,77.496,9.372,79,9.372c1.145,0.004,1.99,0.336,2.521,0.979
	c0.785,0.951,0.722,2.379,0.524,3.417l-1.015,5.31c-0.002,0.007-0.008,0.012-0.014,0.012h-2.666
	C78.348,19.089,78.344,19.087,78.341,19.084z"/>
</svg>
