<?xml version="1.0" encoding="utf-8"?>
<!-- Generator: Adobe Illustrator 15.0.0, SVG Export Plug-In . SVG Version: 6.00 Build 0)  -->
<!DOCTYPE svg PUBLIC "-//W3C//DTD SVG 1.1//EN" "http://www.w3.org/Graphics/SVG/1.1/DTD/svg11.dtd">
<svg version="1.1" id="Layer_1" xmlns="http://www.w3.org/2000/svg" xmlns:xlink="http://www.w3.org/1999/xlink" x="0px" y="0px"
	 width="84px" height="66px" viewBox="0 0 84 66" enable-background="new 0 0 84 66" xml:space="preserve">
<path fill="#FFFFFF" d="M58.266,32.182c0.354-1.171,0.545-2.41,0.545-3.695c0-6.99-5.667-12.657-12.654-12.657
	c-2.011,0-3.912,0.468-5.598,1.303c-2.266-6.718-8.622-11.556-16.104-11.556c-9.385,0-16.993,7.606-16.993,16.992
	c0,2.78,0.667,5.402,1.851,7.718c-4.944,2.39-8.353,7.449-8.353,13.31c0,8.158,6.615,14.771,14.772,14.771h39.662
	c7.314,0,13.248-5.932,13.248-13.25C68.642,38.787,64.2,33.494,58.266,32.182z"/>
<path fill="#0064B9" d="M58.557,32.187c0.365-1.196,0.558-2.463,0.558-3.776c0-7.144-5.792-12.933-12.931-12.933
	c-2.057,0-3.997,0.479-5.722,1.331C38.148,9.943,31.654,5,24.009,5c-9.59,0-17.365,7.773-17.365,17.363
	c0,2.841,0.683,5.521,1.893,7.888C3.483,32.692,0,37.863,0,43.852c0,8.337,6.76,15.095,15.095,15.095h40.528
	c7.477,0,13.54-6.061,13.54-13.54C69.162,38.938,64.623,33.527,58.557,32.187z M44.075,27.5c0.964,0.061,1.899,0.254,2.776,0.579
	c0.344,0.127,0.519,0.508,0.394,0.852c-0.099,0.267-0.353,0.434-0.622,0.434c-0.078,0-0.152-0.014-0.228-0.041
	c-0.759-0.28-1.567-0.447-2.4-0.498c-0.367-0.024-0.645-0.338-0.62-0.704C43.396,27.758,43.72,27.479,44.075,27.5z M38.606,28.532
	c0.881-0.381,1.778-0.662,2.661-0.836c0.359-0.071,0.709,0.163,0.78,0.523c0.069,0.361-0.165,0.708-0.524,0.778
	c-0.792,0.156-1.597,0.41-2.392,0.752c-0.085,0.036-0.175,0.055-0.263,0.055c-0.257,0-0.501-0.149-0.608-0.401
	C38.114,29.068,38.269,28.679,38.606,28.532z M33.993,31.507c0.711-0.619,1.446-1.178,2.182-1.659
	c0.308-0.2,0.718-0.113,0.918,0.192c0.202,0.307,0.114,0.719-0.191,0.918c-0.687,0.448-1.371,0.969-2.039,1.551
	c-0.125,0.107-0.28,0.162-0.437,0.162c-0.183,0-0.367-0.079-0.499-0.229C33.686,32.166,33.716,31.747,33.993,31.507z M13.1,41.34
	c0.194-0.31,0.604-0.404,0.914-0.21c0.31,0.193,0.405,0.603,0.211,0.913c-0.415,0.667-0.713,1.438-0.862,2.232
	c-0.059,0.319-0.339,0.543-0.653,0.543c-0.038,0-0.08-0.005-0.123-0.013c-0.36-0.069-0.598-0.414-0.528-0.773
	C12.24,43.062,12.59,42.156,13.1,41.34z M14.073,49.773c-0.116,0.08-0.247,0.119-0.375,0.119c-0.21,0-0.418-0.1-0.549-0.289
	c-0.545-0.793-0.915-1.701-1.1-2.693c-0.067-0.36,0.173-0.706,0.533-0.774c0.357-0.065,0.706,0.172,0.771,0.535
	c0.152,0.807,0.45,1.539,0.891,2.182C14.451,49.156,14.375,49.568,14.073,49.773z M15.112,39.239
	c0.805-0.543,1.717-0.906,2.704-1.073c0.363-0.06,0.704,0.183,0.766,0.541c0.061,0.364-0.181,0.706-0.543,0.766
	c-0.801,0.138-1.537,0.43-2.186,0.866c-0.112,0.079-0.243,0.114-0.37,0.114c-0.212,0-0.422-0.1-0.549-0.292
	C14.728,39.857,14.807,39.443,15.112,39.239z M18.115,52.557c-0.04,0-0.076-0.001-0.115-0.009c-1.002-0.171-1.914-0.492-2.709-0.959
	c-0.316-0.187-0.421-0.591-0.237-0.906c0.183-0.315,0.592-0.424,0.906-0.238c0.658,0.385,1.418,0.651,2.266,0.793
	c0.359,0.062,0.603,0.404,0.541,0.767C18.712,52.33,18.431,52.557,18.115,52.557z M17.948,28.227c-0.821-0.824-0.821-2.158,0-2.982
	c0.203-0.2,1.548-1.545,3.155-3.153c-1.607-1.607-2.953-2.954-3.155-3.154c-0.821-0.823-0.821-2.158,0-2.981
	c0.824-0.823,2.159-0.823,2.98,0c0.203,0.202,1.549,1.546,3.157,3.155c1.605-1.608,2.953-2.954,3.151-3.155
	c0.824-0.823,2.159-0.823,2.979,0c0.825,0.823,0.825,2.158,0,2.981c-0.199,0.201-1.545,1.547-3.152,3.154
	c1.607,1.608,2.953,2.953,3.152,3.153c0.825,0.824,0.825,2.158,0,2.982c-0.82,0.822-2.155,0.822-2.979,0
	c-0.2-0.203-1.547-1.548-3.151-3.155c-1.608,1.607-2.955,2.952-3.157,3.155C20.105,29.049,18.771,29.049,17.948,28.227z
	 M19.915,38.734c0.062-0.36,0.402-0.604,0.766-0.544c0.864,0.148,1.766,0.421,2.681,0.81c0.338,0.145,0.495,0.532,0.351,0.869
	c-0.106,0.254-0.352,0.406-0.61,0.406c-0.087,0-0.174-0.021-0.261-0.056c-0.82-0.348-1.622-0.59-2.385-0.723
	C20.096,39.439,19.851,39.095,19.915,38.734z M23.532,52.199c-0.948,0.233-1.862,0.389-2.723,0.455c-0.018,0-0.034,0-0.051,0
	c-0.344,0-0.634-0.264-0.662-0.609c-0.028-0.366,0.246-0.686,0.612-0.714c0.784-0.062,1.627-0.202,2.505-0.421
	c0.352-0.088,0.714,0.127,0.802,0.483C24.105,51.75,23.888,52.109,23.532,52.199z M24.246,30.573c-0.321,0-0.603-0.234-0.653-0.561
	c-0.067-0.416-0.101-0.854-0.101-1.298c0-0.499,0.043-1.02,0.124-1.548c0.056-0.364,0.394-0.608,0.756-0.556
	c0.361,0.055,0.609,0.394,0.556,0.757c-0.073,0.463-0.109,0.915-0.109,1.346c0,0.376,0.027,0.743,0.083,1.092
	c0.057,0.361-0.189,0.702-0.551,0.757C24.315,30.57,24.28,30.573,24.246,30.573z M24.83,31.812c0.297-0.211,0.713-0.143,0.925,0.154
	c0.451,0.635,1.045,1.116,1.761,1.429c0.337,0.146,0.49,0.537,0.341,0.873c-0.107,0.246-0.353,0.398-0.608,0.398
	c-0.089,0-0.178-0.019-0.265-0.055c-0.926-0.406-1.725-1.055-2.308-1.872C24.462,32.44,24.532,32.025,24.83,31.812z M24.907,40.458
	c0.151-0.333,0.544-0.482,0.879-0.328c0.792,0.364,1.596,0.719,2.409,1.06c0.336,0.14,0.497,0.53,0.354,0.866
	c-0.105,0.257-0.353,0.405-0.611,0.405c-0.086,0-0.174-0.018-0.256-0.051c-0.826-0.347-1.645-0.708-2.452-1.075
	C24.899,41.183,24.753,40.789,24.907,40.458z M28.599,51.219c-0.85,0.039-1.702,0.145-2.528,0.312
	c-0.046,0.008-0.089,0.014-0.134,0.014c-0.309,0-0.584-0.216-0.648-0.532c-0.073-0.36,0.158-0.71,0.518-0.782
	c0.894-0.182,1.815-0.296,2.733-0.335c0.353-0.021,0.675,0.268,0.693,0.632C29.248,50.892,28.967,51.203,28.599,51.219z
	 M29.182,34.479c-0.027-0.364,0.244-0.686,0.609-0.712c0.772-0.058,1.548-0.297,2.246-0.687c0.321-0.178,0.725-0.066,0.903,0.254
	c0.179,0.322,0.063,0.726-0.255,0.904c-0.866,0.484-1.831,0.777-2.791,0.851c-0.018,0.001-0.035,0.003-0.052,0.003
	C29.498,35.09,29.208,34.827,29.182,34.479z M29.783,42.547c0.128-0.341,0.513-0.514,0.854-0.387
	c0.844,0.314,1.676,0.606,2.477,0.864c0.349,0.111,0.539,0.485,0.428,0.833c-0.09,0.282-0.352,0.459-0.632,0.459
	c-0.067,0-0.135-0.012-0.204-0.03c-0.82-0.264-1.671-0.562-2.533-0.885C29.828,43.272,29.653,42.892,29.783,42.547z M34.471,51.276
	c-0.077,0.299-0.346,0.499-0.644,0.499c-0.053,0-0.107-0.009-0.164-0.019c-0.827-0.217-1.673-0.368-2.516-0.456
	c-0.364-0.038-0.628-0.367-0.589-0.729c0.039-0.364,0.357-0.633,0.729-0.588c0.904,0.093,1.816,0.261,2.704,0.488
	C34.348,50.56,34.563,50.921,34.471,51.276z M34.816,44.23c0.092-0.354,0.458-0.568,0.809-0.477
	c0.878,0.229,1.734,0.414,2.542,0.557c0.364,0.065,0.604,0.407,0.54,0.77c-0.056,0.321-0.336,0.547-0.651,0.547
	c-0.04,0-0.08-0.004-0.119-0.012c-0.842-0.149-1.731-0.343-2.639-0.578C34.938,44.948,34.727,44.586,34.816,44.23z M39.264,53.517
	c-0.126,0.204-0.341,0.316-0.565,0.316c-0.12,0-0.238-0.032-0.349-0.101c-0.705-0.438-1.468-0.829-2.266-1.164
	c-0.339-0.141-0.499-0.529-0.356-0.867s0.532-0.499,0.869-0.356c0.861,0.362,1.686,0.786,2.448,1.258
	C39.362,52.798,39.458,53.205,39.264,53.517z M42.816,57.388c-0.103,0.061-0.217,0.089-0.328,0.089c-0.231,0-0.454-0.122-0.58-0.338
	c-0.363-0.635-0.881-1.27-1.545-1.886c-0.268-0.25-0.286-0.668-0.037-0.936c0.249-0.267,0.669-0.281,0.937-0.033
	c0.763,0.711,1.368,1.452,1.797,2.202C43.245,56.802,43.133,57.207,42.816,57.388z M43.384,45.959
	c-0.423,0.033-0.864,0.051-1.315,0.051c-0.009,0-0.01,0-0.016,0c-0.454,0-0.933-0.018-1.422-0.052
	c-0.366-0.024-0.64-0.344-0.615-0.708c0.024-0.366,0.332-0.636,0.71-0.615c0.46,0.031,0.894,0.068,1.336,0.049
	c0.418,0,0.825-0.018,1.216-0.048c0.378-0.025,0.686,0.245,0.713,0.609C44.024,45.611,43.752,45.932,43.384,45.959z M48.701,44.243
	c-0.758,0.515-1.622,0.923-2.569,1.215c-0.063,0.018-0.129,0.026-0.194,0.026c-0.283,0-0.546-0.183-0.633-0.47
	c-0.108-0.351,0.088-0.721,0.44-0.826c0.818-0.25,1.562-0.601,2.209-1.04c0.303-0.204,0.718-0.125,0.924,0.176
	C49.082,43.624,49.005,44.036,48.701,44.243z M48.523,30.506c-0.288-0.226-0.338-0.644-0.114-0.932
	c0.227-0.288,0.642-0.341,0.932-0.115c0.758,0.594,1.413,1.299,1.941,2.095c0.2,0.305,0.117,0.717-0.188,0.919
	c-0.112,0.077-0.24,0.112-0.368,0.112c-0.214,0-0.423-0.105-0.551-0.298C49.726,31.609,49.171,31.01,48.523,30.506z M52.113,39.776
	c-0.162,0.429-0.357,0.856-0.581,1.271c-0.229,0.435-0.489,0.844-0.769,1.216c-0.132,0.173-0.331,0.264-0.531,0.264
	c-0.138,0-0.28-0.043-0.399-0.131c-0.293-0.22-0.354-0.636-0.133-0.931c0.239-0.32,0.463-0.671,0.661-1.045
	c0.195-0.367,0.369-0.74,0.511-1.116c0.129-0.34,0.511-0.514,0.855-0.384C52.069,39.05,52.243,39.434,52.113,39.776z M52.723,37.002
	c-0.022,0.352-0.314,0.619-0.66,0.619c-0.015,0-0.031,0-0.042-0.002c-0.366-0.021-0.645-0.335-0.621-0.703
	c0.013-0.169,0.019-0.337,0.019-0.506c0-0.649-0.084-1.291-0.247-1.916c-0.089-0.354,0.12-0.716,0.475-0.809
	c0.354-0.091,0.717,0.119,0.811,0.474c0.193,0.731,0.289,1.489,0.289,2.251C52.74,36.607,52.735,36.802,52.723,37.002z"/>
</svg>
