<?xml version="1.0" encoding="utf-8"?>
<!-- Generator: Adobe Illustrator 15.0.0, SVG Export Plug-In . SVG Version: 6.00 Build 0)  -->
<!DOCTYPE svg PUBLIC "-//W3C//DTD SVG 1.1//EN" "http://www.w3.org/Graphics/SVG/1.1/DTD/svg11.dtd">
<svg version="1.1" id="Layer_1" xmlns="http://www.w3.org/2000/svg" xmlns:xlink="http://www.w3.org/1999/xlink" x="0px" y="0px"
	 width="84px" height="66px" viewBox="0 0 84 66" enable-background="new 0 0 84 66" xml:space="preserve">
<path fill="#FFFFFF" d="M68.943,33.164c0.42-1.385,0.646-2.852,0.646-4.372c0-8.272-6.705-14.977-14.974-14.977
	c-2.379,0-4.629,0.554-6.623,1.542C45.31,7.407,37.79,1.683,28.936,1.683c-11.105,0-20.107,9.001-20.107,20.106
	c0,3.29,0.79,6.393,2.19,9.134c-5.85,2.827-9.884,8.813-9.884,15.749c0,9.653,7.828,17.479,17.48,17.479h46.931
	c8.655,0,15.677-7.019,15.677-15.678C81.222,40.98,75.967,34.717,68.943,33.164z"/>
<path fill="#0064B9" d="M69.289,33.169c0.431-1.415,0.66-2.914,0.66-4.468c0-8.453-6.853-15.304-15.301-15.304
	c-2.433,0-4.729,0.566-6.77,1.575C45.14,6.849,37.456,1,28.409,1C17.061,1,7.862,10.198,7.862,21.546
	c0,3.361,0.807,6.532,2.238,9.334C4.122,33.768,0,39.887,0,46.973c0,9.864,7.999,17.86,17.862,17.86h47.957
	c8.846,0,16.021-7.172,16.021-16.021C81.837,41.157,76.467,34.756,69.289,33.169z M52.154,27.624
	c1.14,0.072,2.246,0.301,3.285,0.685c0.406,0.15,0.614,0.601,0.465,1.008c-0.117,0.316-0.416,0.513-0.735,0.513
	c-0.093,0-0.181-0.016-0.271-0.048c-0.896-0.331-1.854-0.529-2.84-0.588c-0.434-0.029-0.762-0.4-0.734-0.833
	C51.35,27.928,51.732,27.599,52.154,27.624z M45.682,28.845c1.043-0.451,2.104-0.783,3.148-0.989
	c0.425-0.084,0.839,0.193,0.923,0.619c0.082,0.427-0.194,0.839-0.619,0.922c-0.937,0.184-1.89,0.484-2.831,0.889
	c-0.102,0.043-0.208,0.065-0.312,0.065c-0.304,0-0.592-0.177-0.72-0.475C45.1,29.479,45.283,29.018,45.682,28.845z M40.223,32.365
	c0.842-0.732,1.71-1.394,2.582-1.963c0.364-0.237,0.85-0.134,1.086,0.227c0.238,0.363,0.135,0.85-0.227,1.087
	c-0.812,0.53-1.622,1.147-2.412,1.835c-0.147,0.127-0.331,0.192-0.516,0.192c-0.217,0-0.435-0.093-0.591-0.271
	C39.86,33.145,39.895,32.649,40.223,32.365z M15.501,44.001c0.23-0.367,0.714-0.479,1.081-0.249c0.367,0.229,0.479,0.713,0.25,1.08
	c-0.491,0.789-0.844,1.701-1.02,2.643c-0.07,0.377-0.401,0.642-0.772,0.642c-0.046,0-0.095-0.007-0.146-0.015
	c-0.425-0.082-0.707-0.49-0.625-0.916C14.483,46.038,14.898,44.967,15.501,44.001z M16.652,53.98
	c-0.137,0.095-0.291,0.141-0.444,0.141c-0.249,0-0.494-0.118-0.649-0.342c-0.645-0.938-1.083-2.014-1.302-3.187
	c-0.079-0.427,0.205-0.836,0.63-0.916c0.423-0.079,0.835,0.203,0.914,0.632c0.179,0.955,0.532,1.822,1.053,2.582
	C17.099,53.25,17.01,53.736,16.652,53.98z M17.882,41.516c0.953-0.644,2.032-1.072,3.2-1.271c0.43-0.071,0.833,0.216,0.906,0.641
	c0.072,0.431-0.214,0.835-0.643,0.905c-0.948,0.163-1.819,0.509-2.587,1.025c-0.133,0.093-0.287,0.136-0.438,0.136
	c-0.251,0-0.499-0.119-0.65-0.347C17.427,42.246,17.521,41.757,17.882,41.516z M21.435,57.273c-0.046,0-0.089-0.002-0.136-0.01
	c-1.186-0.203-2.265-0.584-3.206-1.136c-0.374-0.219-0.499-0.698-0.28-1.073c0.217-0.373,0.7-0.5,1.072-0.281
	c0.779,0.455,1.678,0.771,2.681,0.94c0.425,0.073,0.714,0.479,0.64,0.906C22.142,57.005,21.809,57.273,21.435,57.273z
	 M21.238,28.484c-0.972-0.976-0.972-2.554,0-3.529c0.24-0.237,1.832-1.829,3.733-3.731c-1.902-1.902-3.494-3.495-3.733-3.733
	c-0.972-0.974-0.972-2.553,0-3.528c0.975-0.974,2.554-0.974,3.526,0c0.24,0.239,1.833,1.831,3.735,3.734
	c1.9-1.904,3.494-3.496,3.729-3.734c0.975-0.974,2.555-0.974,3.526,0c0.976,0.975,0.976,2.554,0,3.528
	c-0.236,0.238-1.828,1.831-3.73,3.733c1.902,1.902,3.494,3.494,3.73,3.731c0.976,0.975,0.976,2.553,0,3.529
	c-0.971,0.972-2.551,0.972-3.526,0c-0.236-0.24-1.83-1.832-3.729-3.734c-1.902,1.902-3.496,3.494-3.735,3.734
	C23.791,29.456,22.212,29.456,21.238,28.484z M23.565,40.917c0.073-0.427,0.475-0.714,0.906-0.644
	c1.022,0.176,2.09,0.498,3.173,0.959c0.399,0.17,0.586,0.629,0.415,1.028c-0.126,0.3-0.417,0.479-0.722,0.479
	c-0.103,0-0.206-0.022-0.309-0.064c-0.97-0.412-1.919-0.699-2.822-0.854C23.779,41.751,23.489,41.344,23.565,40.917z M27.845,56.85
	c-1.122,0.277-2.204,0.461-3.222,0.539c-0.021,0-0.04,0-0.061,0c-0.407,0-0.75-0.312-0.783-0.722
	c-0.034-0.433,0.291-0.812,0.724-0.844c0.928-0.074,1.925-0.24,2.965-0.499c0.417-0.104,0.845,0.15,0.949,0.572
	C28.523,56.318,28.265,56.743,27.845,56.85z M28.689,31.261c-0.379,0-0.713-0.277-0.772-0.664c-0.08-0.492-0.12-1.01-0.12-1.536
	c0-0.59,0.051-1.207,0.146-1.832c0.067-0.43,0.466-0.719,0.896-0.657c0.427,0.065,0.721,0.466,0.657,0.895
	c-0.086,0.548-0.128,1.083-0.128,1.593c0,0.445,0.032,0.879,0.098,1.292c0.068,0.427-0.224,0.83-0.652,0.896
	C28.772,31.257,28.73,31.261,28.689,31.261z M29.381,32.726c0.352-0.25,0.844-0.169,1.095,0.182c0.534,0.751,1.237,1.32,2.084,1.691
	c0.399,0.172,0.58,0.635,0.404,1.032c-0.127,0.292-0.417,0.472-0.721,0.472c-0.104,0-0.209-0.021-0.313-0.065
	c-1.095-0.479-2.041-1.247-2.731-2.215C28.946,33.469,29.028,32.979,29.381,32.726z M29.471,42.956
	c0.18-0.394,0.644-0.569,1.041-0.388c0.938,0.431,1.889,0.85,2.851,1.254c0.398,0.166,0.588,0.627,0.419,1.025
	c-0.125,0.303-0.417,0.481-0.723,0.481c-0.102,0-0.206-0.021-0.303-0.062c-0.977-0.41-1.947-0.838-2.901-1.273
	C29.463,43.814,29.29,43.35,29.471,42.956z M33.841,55.689c-1.005,0.047-2.014,0.172-2.992,0.369
	c-0.054,0.01-0.105,0.017-0.158,0.017c-0.366,0-0.692-0.257-0.767-0.63c-0.086-0.426,0.187-0.84,0.612-0.926
	c1.058-0.215,2.148-0.351,3.235-0.396c0.417-0.025,0.799,0.316,0.82,0.748C34.609,55.303,34.276,55.672,33.841,55.689z
	 M34.53,35.882c-0.032-0.432,0.289-0.812,0.721-0.843c0.913-0.068,1.832-0.352,2.657-0.812c0.38-0.211,0.858-0.078,1.069,0.301
	c0.211,0.381,0.075,0.858-0.302,1.07c-1.025,0.572-2.166,0.92-3.302,1.006c-0.021,0.002-0.042,0.004-0.061,0.004
	C34.904,36.605,34.561,36.294,34.53,35.882z M35.241,45.43c0.152-0.404,0.607-0.609,1.01-0.459c0.999,0.373,1.983,0.719,2.931,1.022
	c0.413,0.132,0.638,0.575,0.507,0.987c-0.107,0.332-0.416,0.543-0.748,0.543c-0.079,0-0.16-0.013-0.242-0.037
	c-0.97-0.312-1.977-0.664-2.997-1.047C35.295,46.287,35.089,45.837,35.241,45.43z M40.789,55.758
	c-0.091,0.354-0.409,0.59-0.761,0.59c-0.063,0-0.127-0.009-0.194-0.022c-0.979-0.255-1.979-0.435-2.977-0.539
	c-0.43-0.045-0.743-0.435-0.697-0.862c0.046-0.432,0.423-0.748,0.863-0.697c1.071,0.111,2.149,0.309,3.2,0.578
	C40.643,54.91,40.898,55.337,40.789,55.758z M41.198,47.42c0.109-0.42,0.542-0.671,0.957-0.562c1.039,0.27,2.051,0.488,3.006,0.658
	c0.431,0.076,0.715,0.481,0.639,0.91c-0.066,0.381-0.398,0.647-0.771,0.647c-0.047,0-0.093-0.005-0.14-0.013
	c-0.996-0.178-2.048-0.406-3.123-0.685C41.342,48.27,41.091,47.841,41.198,47.42z M46.461,58.409
	c-0.15,0.241-0.405,0.374-0.669,0.374c-0.142,0-0.282-0.038-0.412-0.119c-0.835-0.518-1.738-0.98-2.681-1.377
	c-0.402-0.167-0.59-0.627-0.422-1.027c0.168-0.398,0.629-0.59,1.028-0.421c1.019,0.429,1.995,0.931,2.896,1.489
	C46.576,57.559,46.689,58.041,46.461,58.409z M50.664,62.99c-0.122,0.07-0.258,0.104-0.389,0.104c-0.272,0-0.537-0.144-0.685-0.398
	c-0.431-0.752-1.044-1.502-1.83-2.232c-0.317-0.295-0.338-0.791-0.042-1.107c0.294-0.316,0.791-0.334,1.107-0.041
	c0.904,0.842,1.621,1.719,2.127,2.606C51.172,62.296,51.039,62.775,50.664,62.99z M51.336,49.467
	c-0.502,0.039-1.024,0.059-1.557,0.059c-0.009,0-0.012,0-0.019,0c-0.538,0-1.104-0.02-1.683-0.061
	c-0.432-0.029-0.756-0.406-0.728-0.838c0.03-0.434,0.394-0.753,0.841-0.729c0.545,0.037,1.057,0.082,1.582,0.058
	c0.493,0,0.976-0.021,1.438-0.056c0.447-0.03,0.812,0.289,0.844,0.721C52.093,49.055,51.771,49.434,51.336,49.467z M57.627,47.436
	c-0.896,0.609-1.919,1.092-3.04,1.437c-0.076,0.021-0.153,0.032-0.229,0.032c-0.337,0-0.646-0.217-0.75-0.555
	c-0.127-0.416,0.105-0.854,0.521-0.98c0.969-0.295,1.849-0.71,2.615-1.229c0.358-0.242,0.849-0.15,1.091,0.207
	C58.078,46.702,57.986,47.191,57.627,47.436z M57.418,31.181c-0.342-0.267-0.4-0.761-0.137-1.103c0.269-0.34,0.76-0.403,1.103-0.136
	c0.897,0.703,1.672,1.538,2.297,2.479c0.238,0.361,0.14,0.849-0.221,1.088c-0.134,0.091-0.285,0.132-0.437,0.132
	c-0.253,0-0.5-0.125-0.652-0.353C58.84,32.486,58.183,31.777,57.418,31.181z M61.664,42.15c-0.191,0.507-0.422,1.014-0.688,1.504
	c-0.271,0.514-0.578,0.998-0.908,1.438c-0.156,0.205-0.392,0.313-0.629,0.313c-0.164,0-0.332-0.051-0.472-0.156
	c-0.347-0.26-0.42-0.752-0.158-1.1c0.283-0.379,0.548-0.795,0.783-1.238c0.231-0.434,0.437-0.875,0.603-1.32
	c0.152-0.402,0.606-0.609,1.013-0.455C61.613,41.29,61.818,41.744,61.664,42.15z M62.386,38.867
	c-0.026,0.415-0.372,0.732-0.783,0.732c-0.016,0-0.034,0-0.049-0.002c-0.433-0.024-0.763-0.396-0.733-0.832
	c0.014-0.199,0.021-0.398,0.021-0.598c0-0.768-0.099-1.529-0.292-2.266c-0.107-0.42,0.141-0.848,0.561-0.957
	c0.42-0.108,0.848,0.14,0.959,0.56c0.229,0.865,0.342,1.761,0.342,2.663C62.406,38.4,62.4,38.631,62.386,38.867z"/>
</svg>
