<?xml version="1.0" encoding="utf-8"?>
<!-- Generator: Adobe Illustrator 15.0.0, SVG Export Plug-In . SVG Version: 6.00 Build 0)  -->
<!DOCTYPE svg PUBLIC "-//W3C//DTD SVG 1.1//EN" "http://www.w3.org/Graphics/SVG/1.1/DTD/svg11.dtd">
<svg version="1.1" id="Layer_1" xmlns="http://www.w3.org/2000/svg" xmlns:xlink="http://www.w3.org/1999/xlink" x="0px" y="0px"
	 width="102px" height="30px" viewBox="0 0 102 30" enable-background="new 0 0 102 30" xml:space="preserve">
<g>
	<g>
		<g>
			<path fill-rule="evenodd" clip-rule="evenodd" d="M11.739,5.667c-0.374,0.788-0.226,1.435,0.332,1.445
				c0.557,0.01,1.312-0.62,1.686-1.408c0.374-0.788,0.226-1.435-0.332-1.445C12.867,4.25,12.112,4.88,11.739,5.667z M16.28,2.824
				c0.004,0.002,0.008,0.007,0.008,0.012c0,0.001,0,0.003-0.001,0.004c-0.333,0.944-0.886,2.018-1.434,2.833
				c-1.153,1.713-2.81,2.794-3.698,2.413c-0.888-0.381-0.674-2.079,0.48-3.793c0.26-0.385,0.545-0.737,0.84-1.049
				c0.002-0.002,0.003-0.005,0.003-0.009c0-0.007-0.006-0.013-0.013-0.013c0,0-0.001,0-0.001,0c-0.363,0.05-0.731,0.122-1.102,0.215
				c-0.003,0-0.005,0.003-0.007,0.005C7.458,8.223,5.799,14.432,6.027,19.97v0.001c0,0.007-0.005,0.013-0.013,0.013
				c-0.001,0-0.003,0-0.005-0.001c-2.298-0.926-3.977-3.146-4.152-5.956l-0.002-0.033C1.565,8.993,5.552,3.87,10.761,2.552
				C12.779,2.041,14.686,2.175,16.28,2.824z"/>
			<path fill-rule="evenodd" clip-rule="evenodd" d="M14.807,16.312c-0.379,0.263-0.774,0.506-1.182,0.725
				c-0.002,0.001-0.004,0.001-0.006,0.001c-0.007,0-0.013-0.005-0.014-0.012c-0.076-1.201-0.334-2.364-0.782-3.332
				c-1.192-2.583-3.276-2.782-4.654-0.444c-0.842,1.432-1.226,3.483-1.123,5.452c0,0.006,0.004,0.011,0.009,0.012
				c1.461,0.458,3.144,0.508,4.939,0.055c5.201-1.325,9.18-6.442,8.891-11.438c-0.255-4.389-3.716-7.224-8.08-6.961
				c-0.003,0-0.006,0.002-0.008,0.004c-0.424,0.43-0.822,0.863-1.195,1.3c-0.001,0.002-0.002,0.005-0.002,0.008
				c0,0.007,0.006,0.014,0.013,0.014c0,0,0.001,0,0.002,0c2.557-0.324,4.607,0.196,5.944,1.262c0.003,0.002,0.005,0.005,0.005,0.01
				c0,0.002,0,0.005-0.002,0.007c-4.608,6.497-4.038,10.198-2.752,13.324c0,0.002,0.001,0.003,0.001,0.005
				C14.812,16.305,14.81,16.309,14.807,16.312z"/>
		</g>
		<g>
			<path fill-rule="evenodd" clip-rule="evenodd" d="M57.785,8.879c1.088,0,1.892,0.237,2.279,0.456
				c0.005,0.002,0.008,0.009,0.007,0.014l-0.376,1.97c0,0.003-0.003,0.007-0.007,0.009c-0.004,0.001-0.009,0.001-0.013,0
				c-0.439-0.24-1.2-0.496-2.018-0.496c-0.686,0-1.132,0.287-1.132,0.769c0,0.344,0.342,0.654,1.065,1.006
				c0.942,0.471,2.007,1.168,2.007,2.429c0,0.823-0.274,1.512-0.814,2.048c-0.72,0.714-1.887,1.103-3.29,1.092
				c-1.078-0.018-2.17-0.297-2.716-0.692c-0.004-0.003-0.007-0.009-0.005-0.014l0.376-1.982c0.001-0.004,0.004-0.007,0.008-0.009
				s0.009-0.002,0.013,0.001c0.584,0.367,1.734,0.762,2.579,0.762c0.655,0,1.097-0.303,1.097-0.787c0-0.439-0.311-0.747-1.103-1.133
				c-1.253-0.627-1.88-1.42-1.88-2.357C53.863,10.124,55.432,8.879,57.785,8.879z"/>
			<path d="M46.624,5.933h2.6c0.004,0,0.008,0.002,0.01,0.005c0.003,0.003,0.004,0.007,0.003,0.011l-1.359,7.146
				c0,0.003,0.001,0.006,0.004,0.007c0.003,0.001,0.006,0,0.008-0.001l3.499-4.035c0.003-0.003,0.006-0.005,0.01-0.005l2.853,0
				c0.005,0,0.01,0.002,0.012,0.008c0.001,0.001,0.001,0.003,0.001,0.005c0,0.003-0.001,0.007-0.003,0.009l-3.623,4.081l2.21,4.794
				c0.001,0.003,0.002,0.004,0.002,0.006c0,0.003-0.001,0.005-0.002,0.007c-0.002,0.004-0.007,0.007-0.012,0.007H50.02
				c-0.005,0-0.01-0.004-0.012-0.008l-2.142-4.749c-0.001-0.003-0.004-0.005-0.007-0.004c-0.003,0.001-0.005,0.003-0.006,0.005
				l-0.901,4.745c-0.002,0.006-0.007,0.011-0.014,0.011h-2.6c-0.004,0-0.008-0.002-0.01-0.005c-0.002-0.004-0.003-0.007-0.003-0.011
				L46.61,5.944C46.612,5.937,46.617,5.933,46.624,5.933z"/>
			<path fill-rule="evenodd" clip-rule="evenodd" d="M43.102,8.897c0.668,0,1.35,0.116,1.823,0.31
				c0.006,0.002,0.009,0.009,0.008,0.015l-0.404,2.122c-0.001,0.004-0.003,0.008-0.007,0.009c-0.004,0.002-0.009,0.002-0.012,0
				c-0.408-0.228-0.881-0.338-1.444-0.338c-1.883,0-3.004,1.641-3.004,3.223c0,1.342,0.896,1.823,1.732,1.823
				c0.747,0,1.382-0.163,2.189-0.56c0.004-0.002,0.01-0.002,0.014,0.001C44,15.504,44.001,15.509,44,15.513l-0.413,2.18
				c-0.001,0.004-0.003,0.007-0.007,0.01c-0.612,0.296-1.558,0.473-2.532,0.473c-2.286,0-3.759-1.431-3.759-3.648
				C37.289,11.318,39.787,8.897,43.102,8.897z"/>
			<path d="M28.922,8.861c0.157,0,0.349,0.016,0.49,0.042c0.003,0,0.006,0.002,0.008,0.005c0.002,0.003,0.002,0.007,0.002,0.01
				l-0.509,2.563c-0.001,0.003-0.003,0.007-0.006,0.009c-0.002,0.002-0.006,0.002-0.01,0.002c-0.092-0.019-0.239-0.042-0.412-0.042
				c-1.796,0-2.497,1.755-2.769,3.207l-0.638,3.413c0,0.006-0.006,0.01-0.012,0.01h-2.618c-0.004,0-0.008-0.001-0.011-0.004
				c-0.002-0.003-0.003-0.007-0.002-0.012l1.71-8.993c0.001-0.006,0.006-0.01,0.013-0.01l2.303,0c0.003,0,0.007,0.001,0.01,0.005
				c0.002,0.002,0.003,0.005,0.003,0.008l-0.116,0.607c-0.109,0.579-0.287,0.92-0.4,1.082l-0.017,0.029
				c-0.04,0.085,0.023,0.174,0.091,0.206s0.178,0.024,0.218-0.062l0.011-0.033c0.051-0.19,0.156-0.603,0.511-1.002
				C27.384,9.228,28.124,8.861,28.922,8.861z"/>
			<path fill-rule="evenodd" clip-rule="evenodd" d="M88.855,12.613c0.012,0,0.024-0.001,0.036-0.002
				c1.043-0.044,1.669-0.205,1.977-0.509c0.146-0.145,0.217-0.322,0.217-0.538c0-0.461-0.381-0.751-0.95-0.751
				c-0.857,0-1.481,0.526-1.824,1.156c-0.01,0.018-0.02,0.037-0.029,0.054c-0.249,0.467-0.328,0.518-0.552,0.659l-0.028,0.019
				c-0.072,0.061-0.049,0.167,0,0.226c0.049,0.057,0.147,0.097,0.22,0.037l0.023-0.025C88.126,12.723,88.165,12.643,88.855,12.613z
				 M90.462,8.879c1.861,0,3.104,1.082,3.104,2.686c0,0.742-0.241,1.351-0.717,1.814c-0.801,0.78-2.246,1.172-4.417,1.186l0,0
				c-0.521,0-0.64-0.263-0.731-0.438L87.682,14.1c-0.059-0.075-0.169-0.059-0.229-0.012c-0.06,0.046-0.099,0.148-0.041,0.222
				l0.023,0.025c0.241,0.218,0.324,0.267,0.424,0.619c0.044,0.177,0.115,0.356,0.212,0.492c0.343,0.433,0.948,0.668,1.699,0.668
				c1.098,0,2.049-0.267,3.083-0.863c0.005-0.002,0.01-0.002,0.015,0.001c0.004,0.003,0.006,0.008,0.005,0.013l-0.417,2.191
				c0,0.004-0.003,0.007-0.007,0.009c-1.26,0.641-2.737,0.71-3.314,0.71c-2.461,0-3.868-1.367-3.868-3.757
				c0-1.377,0.506-2.758,1.388-3.787C87.622,9.501,88.974,8.879,90.462,8.879z"/>
			<path d="M63.972,16.186c1.39,0,2.409-1.971,2.409-3.712c0-0.42-0.1-1.441-1.068-1.441c-0.985,0-1.816,1.123-2.139,2.824
				C63.063,14.438,62.755,16.186,63.972,16.186z M63.787,9.022l-0.078,0.409c-0.122,0.646-0.314,0.893-0.439,1.046l-0.02,0.028
				c-0.046,0.083,0.005,0.173,0.07,0.209c0.065,0.037,0.184,0.039,0.229-0.043l0.014-0.031c0.063-0.187,0.169-0.565,0.58-0.959
				c0.604-0.518,1.34-0.802,2.104-0.802c1.75,0,2.886,1.327,2.886,3.395c0,2.169-1.042,4.393-2.918,5.393
				c-1.457,0.777-2.788,0.602-3.438,0.092c-0.157-0.123-0.195-0.443-0.213-0.57l-0.008-0.033c-0.029-0.09-0.136-0.125-0.218-0.096
				c-0.071,0.025-0.136,0.111-0.107,0.201l0.014,0.031c0.12,0.212,0.202,0.366,0.177,0.559l-0.566,2.992
				c-0.001,0.007-0.006,0.011-0.013,0.011h-2.619c-0.004,0-0.007-0.001-0.01-0.004c-0.002-0.004-0.003-0.008-0.003-0.012
				l2.249-11.822c0.001-0.006,0.006-0.011,0.013-0.011l2.303,0.002c0.004,0,0.007,0.001,0.01,0.004
				C63.787,9.015,63.788,9.018,63.787,9.022z"/>
			<path fill-rule="evenodd" clip-rule="evenodd" d="M83.929,8.897c0.667,0,1.349,0.116,1.822,0.31
				c0.006,0.002,0.009,0.009,0.008,0.015l-0.404,2.122c-0.001,0.004-0.003,0.008-0.007,0.009c-0.004,0.002-0.01,0.002-0.013,0
				c-0.408-0.228-0.881-0.338-1.444-0.338c-1.882,0-3.004,1.641-3.004,3.223c0,1.342,0.896,1.823,1.732,1.823
				c0.747,0,1.382-0.163,2.188-0.56c0.004-0.002,0.01-0.002,0.014,0.001c0.005,0.003,0.006,0.008,0.006,0.013l-0.413,2.18
				c-0.002,0.004-0.004,0.007-0.008,0.01c-0.612,0.296-1.559,0.473-2.532,0.473c-2.286,0-3.759-1.431-3.759-3.648
				C78.115,11.318,80.613,8.897,83.929,8.897z"/>
			<path d="M73.224,11.417c-0.711,0.711-1.244,2.046-1.244,3.109c0.001,0.932,0.347,1.514,0.948,1.514
				c0.962,0,1.792-1.006,2.077-2.48c0.063-0.329,0.128-0.665,0.175-0.962c0.047-0.298,0.076-0.561,0.067-0.744
				c-0.03-0.629-0.358-0.968-0.946-0.968C73.941,10.886,73.569,11.072,73.224,11.417z M74.202,17.979l0.079-0.398
				c0.074-0.36,0.36-0.852,0.471-1.014l0.017-0.03c0.039-0.086-0.018-0.187-0.086-0.218c-0.083-0.035-0.188-0.008-0.227,0.079
				l-0.011,0.032c-0.047,0.191-0.15,0.622-0.558,1.009c-0.521,0.475-1.241,0.756-2.025,0.756c-1.759,0-2.553-1.56-2.554-3.122
				c-0.002-1.774,0.696-3.531,1.863-4.698c0.978-0.979,2.24-1.496,3.651-1.496c1.072,0.004,1.866,0.315,2.364,0.918
				c0.736,0.893,0.676,2.232,0.492,3.206l-0.952,4.981c-0.001,0.005-0.006,0.01-0.013,0.01h-2.499c-0.005,0-0.009-0.002-0.011-0.005
				C74.202,17.986,74.201,17.982,74.202,17.979z"/>
			<path d="M32.397,11.417c-0.71,0.711-1.244,2.046-1.243,3.109c0,0.932,0.346,1.514,0.948,1.514c0.962,0,1.792-1.006,2.077-2.48
				c0.064-0.329,0.128-0.665,0.175-0.962c0.047-0.298,0.076-0.561,0.067-0.744c-0.03-0.629-0.358-0.968-0.946-0.968
				C33.116,10.886,32.743,11.072,32.397,11.417z M33.376,17.979l0.079-0.398c0.075-0.36,0.361-0.852,0.471-1.014l0.018-0.03
				c0.038-0.086-0.018-0.187-0.087-0.218c-0.083-0.035-0.187-0.008-0.226,0.079L33.62,16.43c-0.047,0.191-0.15,0.622-0.558,1.009
				c-0.521,0.475-1.241,0.756-2.026,0.756c-1.758,0-2.552-1.56-2.553-3.122c-0.001-1.774,0.696-3.531,1.863-4.698
				c0.978-0.979,2.24-1.496,3.65-1.496c1.074,0.004,1.867,0.315,2.365,0.918c0.736,0.893,0.676,2.232,0.492,3.206l-0.952,4.981
				c-0.001,0.005-0.006,0.01-0.013,0.01H33.39c-0.004,0-0.008-0.002-0.011-0.005S33.375,17.982,33.376,17.979z"/>
			<path d="M93.577,17.064c-0.049,0.545,0.349,0.981,0.893,0.981c0.555,0,1.05-0.454,1.1-1.009c0.049-0.547-0.349-0.983-0.893-0.983
				C94.122,16.054,93.627,16.508,93.577,17.064z M93.421,17.05c0.058-0.636,0.62-1.153,1.256-1.153c0.637,0,1.106,0.517,1.049,1.153
				c-0.057,0.637-0.619,1.152-1.256,1.152S93.363,17.687,93.421,17.05z M94.321,16.37c0.001-0.003,0.003-0.005,0.005-0.005h0.289
				l0.003,0.001c0.074,0.001,0.123,0.001,0.16,0.004c0.051,0.004,0.089,0.012,0.128,0.025c0.147,0.049,0.23,0.165,0.23,0.312
				c0,0.025-0.003,0.053-0.008,0.08c-0.033,0.182-0.148,0.329-0.36,0.388l0.186,0.546c0,0.001,0,0.001,0,0.001
				c0,0.002,0,0.003-0.001,0.004c-0.001,0.002-0.003,0.002-0.005,0.002h-0.188c-0.003,0-0.005-0.001-0.006-0.003l-0.176-0.521
				l-0.116,0.002h-0.004h-0.128l-0.097,0.518c-0.001,0.003-0.003,0.004-0.006,0.004h-0.155c-0.002,0-0.004,0-0.005-0.001
				c-0.001-0.002-0.001-0.003-0.001-0.005l0.098-0.521l0.001-0.007l0.078-0.409L94.321,16.37z M94.585,16.532h-0.127l-0.048,0.256
				l-0.047,0.253h0.124h0.014c0.064-0.001,0.106-0.002,0.141-0.004c0.037-0.003,0.064-0.008,0.096-0.019
				c0.12-0.033,0.204-0.122,0.225-0.233c0.021-0.11-0.03-0.197-0.136-0.231c-0.027-0.01-0.052-0.015-0.089-0.017
				c-0.033-0.003-0.075-0.003-0.138-0.004L94.585,16.532z"/>
		</g>
	</g>
	<g>
		<path d="M42.274,28.319h-0.986c-0.004,0-0.008-0.001-0.01-0.004c-0.002-0.003-0.003-0.007-0.002-0.011l1.13-5.949
			c0.001-0.007,0.006-0.011,0.013-0.011h0.986c0.004,0,0.007,0.002,0.01,0.005c0.002,0.003,0.003,0.007,0.002,0.011l-1.13,5.949
			C42.286,28.315,42.28,28.319,42.274,28.319z"/>
		<path d="M76.273,28.319h-0.628c-0.004,0-0.008-0.001-0.01-0.004c-0.003-0.003-0.004-0.007-0.003-0.011l0.456-2.388
			c0.022-0.141,0.03-0.334,0.02-0.47c-0.043-0.543-0.39-0.867-0.928-0.867c-0.615,0-1.19,0.58-1.339,1.35l-0.44,2.38
			c-0.001,0.006-0.007,0.01-0.013,0.01h-0.628c-0.004,0-0.008-0.001-0.01-0.004c-0.003-0.003-0.004-0.007-0.003-0.011l0.448-2.388
			c0.027-0.13,0.039-0.322,0.027-0.47c-0.042-0.535-0.4-0.867-0.936-0.867c-0.615,0-1.191,0.58-1.339,1.35L70.5,28.31
			c-0.001,0.006-0.007,0.01-0.013,0.01h-0.628c-0.004,0-0.008-0.001-0.01-0.004c-0.003-0.003-0.003-0.007-0.003-0.011l0.794-4.214
			c0.001-0.006,0.007-0.011,0.013-0.011h0.628c0.004,0,0.008,0.002,0.01,0.005c0.003,0.003,0.004,0.008,0.003,0.011l-0.116,0.635
			c0.366-0.445,0.736-0.739,1.318-0.739c0.609,0,1.085,0.349,1.276,0.935c0.358-0.611,0.917-0.935,1.617-0.935
			c0.777,0,1.341,0.529,1.403,1.315c0.012,0.161-0.018,0.35-0.045,0.532c-0.007,0.041-0.013,0.083-0.019,0.123l-0.443,2.348
			C76.285,28.315,76.279,28.319,76.273,28.319z"/>
		<path d="M90.664,28.319h-0.628c-0.004,0-0.008-0.001-0.01-0.004s-0.004-0.007-0.003-0.011l0.447-2.388
			c0.028-0.129,0.04-0.321,0.028-0.47c-0.042-0.543-0.417-0.867-1.001-0.867c-0.66,0-1.25,0.567-1.404,1.35l-0.448,2.38
			c-0.001,0.006-0.007,0.01-0.013,0.01h-0.628c-0.004,0-0.008-0.001-0.01-0.004c-0.003-0.003-0.004-0.007-0.003-0.011l0.793-4.214
			c0.002-0.006,0.007-0.011,0.013-0.011h0.629c0.004,0,0.007,0.002,0.01,0.005c0.002,0.003,0.003,0.008,0.003,0.011l-0.117,0.635
			c0.308-0.372,0.715-0.739,1.384-0.739c0.824,0,1.398,0.517,1.461,1.315c0.013,0.166-0.006,0.38-0.055,0.655l-0.436,2.348
			C90.676,28.315,90.67,28.319,90.664,28.319z"/>
		<path d="M91.878,29.648c-0.344,0-0.646-0.094-0.951-0.296c-0.006-0.004-0.008-0.012-0.004-0.019l0.306-0.47
			c0.002-0.003,0.005-0.005,0.009-0.006c0.004-0.002,0.007,0.001,0.01,0.002c0.158,0.116,0.444,0.207,0.653,0.207
			c0.379,0,0.676-0.221,1.024-0.763l-1.096-4.207c-0.001-0.005,0-0.009,0.003-0.012c0.002-0.004,0.006-0.006,0.01-0.006h0.652
			c0.006,0,0.012,0.005,0.013,0.011l0.855,3.487l1.972-3.49c0.003-0.005,0.007-0.008,0.012-0.008h0.71
			c0.005,0,0.009,0.003,0.011,0.008c0.002,0.003,0.002,0.009,0,0.013l-2.542,4.357C93.01,29.304,92.533,29.648,91.878,29.648z"/>
		<path d="M62.6,28.418c-0.932,0-1.922-0.637-2.014-1.854c-0.05-0.677,0.18-1.345,0.631-1.835c0.434-0.469,1.039-0.737,1.662-0.737
			c1.022,0,1.542,0.621,1.761,0.992c0.004,0.006,0.002,0.014-0.004,0.018l-0.48,0.318c-0.006,0.003-0.014,0.002-0.018-0.004
			c-0.233-0.347-0.587-0.744-1.257-0.744c-0.418,0-0.83,0.191-1.13,0.525c-0.356,0.387-0.537,0.914-0.497,1.449
			c0.063,0.848,0.72,1.291,1.337,1.291c0.437,0,0.805-0.17,1.193-0.55c0.003-0.003,0.006-0.004,0.009-0.004l0,0
			c0.004,0,0.007,0.001,0.01,0.004l0.396,0.407c0.005,0.005,0.005,0.014,0,0.019C63.726,28.194,63.218,28.418,62.6,28.418z"/>
		<path d="M50.023,28.41c-0.805,0-1.365-0.511-1.427-1.3c-0.019-0.231,0.027-0.515,0.071-0.762l0.443-2.347
			c0.001-0.007,0.007-0.011,0.013-0.011h0.985c0.005,0,0.009,0.002,0.011,0.005s0.004,0.007,0.003,0.011l-0.456,2.388
			c-0.022,0.131-0.032,0.308-0.023,0.428c0.033,0.423,0.318,0.665,0.782,0.665c0.534,0,0.96-0.418,1.084-1.065l0.462-2.42
			c0.001-0.007,0.006-0.011,0.013-0.011h0.986c0.004,0,0.008,0.002,0.01,0.005s0.004,0.007,0.003,0.011l-0.812,4.303
			c-0.001,0.006-0.007,0.01-0.013,0.01h-0.986c-0.004,0-0.008-0.001-0.01-0.004s-0.003-0.007-0.003-0.011l0.095-0.51
			C50.979,28.089,50.592,28.41,50.023,28.41z"/>
		<path d="M39.085,28.418c-1.166,0-2.04-0.793-2.125-1.928c-0.051-0.687,0.17-1.335,0.624-1.827
			c0.447-0.484,1.079-0.762,1.733-0.762c0.991,0,1.539,0.535,1.824,0.984c0.003,0.006,0.002,0.014-0.003,0.018l-0.726,0.521
			c-0.002,0.002-0.007,0.004-0.01,0.002c-0.003,0-0.006-0.003-0.008-0.006c-0.231-0.331-0.523-0.638-1.095-0.638
			c-0.327,0-0.656,0.152-0.901,0.42c-0.307,0.343-0.464,0.808-0.429,1.277c0.046,0.616,0.502,1.063,1.084,1.063
			c0.389,0,0.694-0.138,1.053-0.478c0.002-0.002,0.005-0.003,0.009-0.003c0.002-0.002,0.007,0.001,0.01,0.004l0.569,0.644
			c0.005,0.006,0.004,0.014-0.001,0.019C40.345,28.07,39.881,28.418,39.085,28.418z"/>
		<path d="M33.804,28.319h-0.985c-0.004,0-0.008-0.001-0.01-0.004s-0.003-0.007-0.002-0.011l0.448-2.388
			c0.028-0.134,0.041-0.301,0.03-0.429c-0.033-0.422-0.321-0.664-0.789-0.664c-0.535,0-0.96,0.418-1.084,1.065l-0.454,2.42
			c-0.001,0.006-0.007,0.01-0.013,0.01H29.95c-0.004,0-0.008-0.001-0.01-0.004c-0.002-0.003-0.003-0.007-0.002-0.011l0.811-4.303
			c0.001-0.007,0.007-0.011,0.013-0.011h0.986c0.004,0,0.008,0.002,0.01,0.005c0.002,0.003,0.003,0.007,0.002,0.011l-0.095,0.502
			c0.28-0.29,0.671-0.607,1.241-0.607c0.8,0,1.356,0.51,1.418,1.3c0.018,0.231-0.027,0.515-0.071,0.761l-0.436,2.348
			C33.816,28.315,33.811,28.319,33.804,28.319z"/>
		<path d="M7.397,28.319H6.77c-0.004,0-0.008-0.001-0.01-0.004c-0.002-0.003-0.003-0.007-0.002-0.011l0.448-2.388
			c0.028-0.132,0.04-0.324,0.028-0.47C7.19,24.904,6.816,24.58,6.231,24.58c-0.659,0-1.25,0.567-1.404,1.35l-0.448,2.38
			c-0.001,0.006-0.007,0.01-0.013,0.01H3.738c-0.004,0-0.008-0.001-0.01-0.004s-0.003-0.007-0.002-0.011l1.13-5.949
			c0.001-0.007,0.006-0.011,0.013-0.011h0.627c0.004,0,0.008,0.002,0.01,0.005c0.002,0.003,0.003,0.007,0.002,0.011l-0.451,2.369
			c0.307-0.372,0.714-0.738,1.383-0.738c0.825,0,1.397,0.517,1.46,1.315c0.014,0.168-0.004,0.376-0.055,0.655L7.411,28.31
			C7.409,28.315,7.404,28.319,7.397,28.319z"/>
		<path d="M2.179,28.394c-0.648,0-1.06-0.315-1.1-0.844c-0.011-0.136-0.001-0.297,0.024-0.443l0.472-2.445H1.013
			c-0.004,0-0.008-0.002-0.01-0.005S1,24.649,1,24.646l0.105-0.555c0.001-0.006,0.007-0.011,0.013-0.011h0.575l0.244-1.26
			c0.001-0.007,0.007-0.011,0.013-0.011h0.618c0.004,0,0.008,0.001,0.01,0.004c0.002,0.004,0.003,0.008,0.002,0.012L2.337,24.08
			h1.309c0.004,0,0.008,0.002,0.01,0.005s0.003,0.008,0.003,0.012L3.555,24.65c-0.001,0.006-0.007,0.011-0.013,0.011H2.228
			l-0.467,2.418c-0.008,0.088-0.016,0.215-0.009,0.306c0.025,0.347,0.338,0.42,0.596,0.42c0.191,0,0.391-0.043,0.595-0.129
			c0.004-0.002,0.009-0.001,0.014,0.002c0.004,0.003,0.006,0.008,0.004,0.013l-0.111,0.57c-0.001,0.005-0.004,0.008-0.008,0.01
			C2.637,28.356,2.438,28.394,2.179,28.394z"/>
		<path d="M45.708,28.418c-0.6,0-1.127-0.194-1.524-0.561c-0.384-0.354-0.62-0.857-0.664-1.416
			c-0.051-0.651,0.176-1.302,0.622-1.786c0.439-0.486,1.045-0.754,1.703-0.754c0.6,0,1.127,0.194,1.525,0.562
			c0.384,0.355,0.62,0.86,0.665,1.423c0.051,0.654-0.175,1.303-0.623,1.778C46.971,28.15,46.366,28.418,45.708,28.418z
			 M45.854,24.783c-0.335,0-0.658,0.146-0.911,0.412c-0.29,0.307-0.456,0.782-0.422,1.212c0.055,0.695,0.505,1.129,1.177,1.129
			c0.347,0,0.679-0.15,0.911-0.412c0.29-0.307,0.456-0.782,0.422-1.212C46.976,25.216,46.525,24.783,45.854,24.783z"/>
		<path d="M67.098,28.418c-1.135,0-1.989-0.783-2.077-1.903c-0.052-0.653,0.176-1.302,0.623-1.778
			c0.437-0.474,1.045-0.745,1.671-0.745c1.139,0,1.997,0.778,2.085,1.895c0.05,0.643-0.177,1.293-0.622,1.786
			C68.34,28.146,67.729,28.418,67.098,28.418z M67.317,24.571c-0.428,0-0.835,0.187-1.147,0.525
			c-0.346,0.375-0.527,0.898-0.488,1.399c0.064,0.822,0.605,1.333,1.413,1.333c0.432,0,0.84-0.184,1.147-0.517
			c0.345-0.376,0.527-0.898,0.488-1.4C68.665,25.085,68.124,24.571,67.317,24.571z"/>
		<path d="M77.679,29.624h-0.628c-0.004,0-0.008-0.002-0.01-0.005s-0.004-0.007-0.003-0.012l1.042-5.517
			c0.001-0.006,0.006-0.011,0.013-0.011h0.627c0.004,0,0.008,0.002,0.011,0.005c0.002,0.003,0.003,0.008,0.002,0.012l-0.128,0.673
			c0.433-0.523,0.927-0.778,1.51-0.778c0.991,0,1.741,0.738,1.824,1.796c0.058,0.734-0.173,1.442-0.634,1.941
			c-0.409,0.444-0.954,0.689-1.537,0.689c-0.923,0-1.409-0.545-1.657-1.017l-0.419,2.212C77.69,29.619,77.686,29.624,77.679,29.624z
			 M79.979,24.571c-0.44,0-0.875,0.204-1.193,0.559c-0.365,0.396-0.552,0.909-0.513,1.407c0.059,0.754,0.646,1.3,1.394,1.3
			c0.419,0,0.812-0.172,1.109-0.485c0.351-0.388,0.525-0.937,0.48-1.505C81.196,25.084,80.684,24.571,79.979,24.571z"/>
		<path d="M83.885,28.409c-0.648,0-1.377-0.368-1.44-1.177c-0.032-0.398,0.08-0.748,0.324-1.013
			c0.312-0.339,0.824-0.525,1.443-0.525c0.457,0,0.949,0.073,1.506,0.225l0.015-0.083c0.024-0.129,0.035-0.281,0.026-0.389
			c-0.043-0.551-0.457-0.843-1.194-0.843c-0.49,0-0.866,0.111-1.169,0.219c-0.004,0.001-0.007,0-0.01-0.001
			c-0.004-0.001-0.007-0.004-0.008-0.008l-0.146-0.521c-0.002-0.007,0.002-0.014,0.009-0.016c0.457-0.176,0.882-0.254,1.378-0.254
			c1.06,0,1.704,0.479,1.771,1.316c0.014,0.175-0.002,0.382-0.045,0.582l-0.448,2.388c-0.001,0.006-0.007,0.01-0.013,0.01h-0.611
			c-0.004,0-0.008-0.001-0.01-0.004s-0.004-0.007-0.003-0.011l0.118-0.608C84.983,28.169,84.481,28.409,83.885,28.409z
			 M84.272,26.185c-0.417,0-0.748,0.12-0.957,0.347c-0.159,0.165-0.234,0.381-0.215,0.625c0.035,0.448,0.405,0.738,0.941,0.738
			c0.74,0,1.403-0.535,1.543-1.245l0.056-0.281C85.218,26.25,84.732,26.185,84.272,26.185z"/>
		<path d="M55.188,28.41c-0.475,0-0.916-0.177-1.244-0.497c-0.344-0.336-0.549-0.805-0.592-1.357
			c-0.059-0.75,0.166-1.442,0.634-1.949c0.413-0.448,0.984-0.705,1.567-0.705c0.658,0,1.153,0.272,1.511,0.833l0.449-2.379
			c0.001-0.007,0.007-0.011,0.013-0.011h0.986c0.004,0,0.008,0.002,0.011,0.005c0.002,0.003,0.003,0.007,0.002,0.011l-1.122,5.949
			c-0.001,0.006-0.007,0.01-0.013,0.01h-0.986c-0.004,0-0.008-0.001-0.01-0.004c-0.003-0.003-0.004-0.007-0.003-0.011l0.101-0.524
			C56.093,28.21,55.678,28.41,55.188,28.41z M55.733,24.775c-0.348,0-0.674,0.146-0.919,0.411c-0.303,0.329-0.454,0.803-0.415,1.302
			c0.05,0.636,0.48,1.048,1.097,1.048c0.362,0,0.714-0.162,0.966-0.443c0.312-0.34,0.472-0.794,0.436-1.246
			C56.849,25.216,56.369,24.775,55.733,24.775z"/>
		<path d="M20.754,29.624H19.76c-0.004,0-0.008-0.002-0.01-0.005s-0.003-0.007-0.003-0.012l1.059-5.605
			c0.001-0.007,0.007-0.011,0.013-0.011h0.986c0.004,0,0.007,0.002,0.01,0.005c0.002,0.003,0.003,0.007,0.002,0.011l-0.101,0.525
			c0.413-0.437,0.816-0.631,1.304-0.631c1.011,0,1.75,0.745,1.837,1.854c0.059,0.75-0.167,1.442-0.634,1.95
			c-0.413,0.447-0.981,0.704-1.56,0.704c-0.654,0-1.165-0.28-1.519-0.833l-0.377,2.037C20.766,29.619,20.761,29.624,20.754,29.624z
			 M22.72,24.775c-0.364,0-0.709,0.157-0.974,0.443c-0.308,0.334-0.463,0.788-0.427,1.246c0.048,0.62,0.535,1.071,1.156,1.071
			c0.352,0,0.686-0.15,0.919-0.412c0.308-0.325,0.455-0.787,0.415-1.302C23.759,25.187,23.332,24.775,22.72,24.775z"/>
		<path d="M27.55,28.418c-0.591,0-1.102-0.177-1.476-0.511c-0.375-0.335-0.596-0.813-0.641-1.384
			c-0.054-0.682,0.188-1.387,0.646-1.885c0.438-0.476,1.041-0.737,1.696-0.737c0.531,0,0.988,0.168,1.323,0.487
			c0.316,0.302,0.503,0.716,0.542,1.195c0.024,0.306-0.017,0.623-0.117,0.918c-0.001,0.005-0.007,0.009-0.012,0.009h-3.115
			c0.059,0.673,0.502,1.074,1.188,1.074c0.388,0,0.695-0.12,1.06-0.413c0.005-0.004,0.013-0.003,0.019,0.002l0.522,0.627
			c0.004,0.006,0.003,0.014-0.002,0.019C28.733,28.222,28.199,28.418,27.55,28.418z M26.453,25.833h2.206
			c0.018-0.077,0.023-0.178,0.015-0.287c-0.04-0.508-0.379-0.812-0.907-0.812c-0.37,0-0.698,0.146-0.951,0.42
			C26.647,25.335,26.523,25.569,26.453,25.833z"/>
		<path d="M10.561,28.418c-1.124,0-1.935-0.726-2.021-1.805c-0.054-0.692,0.19-1.406,0.653-1.908
			c0.43-0.467,0.986-0.714,1.608-0.714c0.507,0,0.943,0.166,1.262,0.48c0.292,0.288,0.472,0.695,0.508,1.145
			c0.021,0.266-0.007,0.536-0.084,0.804c-0.001,0.006-0.007,0.01-0.013,0.01H9.186c-0.002,0.053,0.002,0.105,0.006,0.156
			c0.061,0.766,0.593,1.259,1.358,1.259c0.561,0,0.905-0.197,1.248-0.493c0.002-0.002,0.005-0.004,0.008-0.004
			c0.002,0.001,0.008,0.002,0.01,0.005l0.358,0.416c0.005,0.005,0.004,0.014,0,0.019C11.849,28.081,11.372,28.418,10.561,28.418z
			 M9.235,25.931h2.687c0.018-0.078,0.022-0.183,0.012-0.312c-0.041-0.519-0.357-1.072-1.123-1.072
			c-0.425,0-0.813,0.174-1.124,0.502C9.474,25.279,9.317,25.584,9.235,25.931z"/>
		<path d="M17.349,28.418c-0.6,0-1.127-0.194-1.525-0.561c-0.384-0.354-0.62-0.857-0.664-1.416
			c-0.051-0.651,0.175-1.302,0.622-1.786c0.439-0.486,1.043-0.754,1.703-0.754c0.601,0,1.128,0.194,1.525,0.562
			c0.384,0.355,0.62,0.86,0.664,1.423c0.051,0.653-0.175,1.302-0.623,1.778C18.612,28.15,18.007,28.418,17.349,28.418z
			 M17.495,24.783c-0.334,0-0.658,0.146-0.911,0.412c-0.29,0.306-0.456,0.781-0.422,1.212c0.055,0.695,0.506,1.129,1.178,1.129
			c0.346,0,0.679-0.15,0.911-0.412c0.29-0.306,0.455-0.781,0.422-1.212C18.617,25.216,18.166,24.783,17.495,24.783z"/>
	</g>
</g>
</svg>
