<?xml version="1.0" encoding="utf-8"?>
<!-- Generator: Adobe Illustrator 15.0.0, SVG Export Plug-In . SVG Version: 6.00 Build 0)  -->
<!DOCTYPE svg PUBLIC "-//W3C//DTD SVG 1.1//EN" "http://www.w3.org/Graphics/SVG/1.1/DTD/svg11.dtd">
<svg version="1.1" id="Layer_1" xmlns="http://www.w3.org/2000/svg" xmlns:xlink="http://www.w3.org/1999/xlink" x="0px" y="0px"
	 width="16px" height="88px" viewBox="0 0 16 88" enable-background="new 0 0 16 88" xml:space="preserve">
<path d="M1.564,56.565c0,0.309,0.017,0.661,0.039,0.995l2.672-0.19c-0.061-0.259-0.093-0.528-0.093-0.805
	c0-0.277,0.032-0.546,0.093-0.806l-2.672-0.19C1.581,55.904,1.564,56.258,1.564,56.565z M7.723,50.408
	c-0.309,0-0.662,0.017-0.996,0.039l0.191,2.672c0.258-0.061,0.527-0.093,0.805-0.093c0.276,0,0.546,0.032,0.805,0.093l0.191-2.672
	C8.384,50.425,8.03,50.408,7.723,50.408z M7.723,62.723c0.308,0,0.66-0.017,0.994-0.038l-0.19-2.672
	c-0.26,0.061-0.528,0.092-0.804,0.092c-0.278,0-0.547-0.031-0.807-0.092l-0.19,2.672C7.061,62.706,7.414,62.723,7.723,62.723z
	 M13.88,56.565c0-0.308-0.018-0.661-0.039-0.995l-2.672,0.19c0.061,0.26,0.092,0.528,0.092,0.805c0,0.277-0.031,0.546-0.092,0.806
	l2.672,0.19C13.862,57.228,13.88,56.874,13.88,56.565z M6.178,50.698l-2.151-0.203c-1.308,0.006-2.37,1.067-2.376,2.375l0.184,2.149
	C2.406,52.912,4.068,51.251,6.178,50.698z M6.176,62.453c-2.108-0.573-3.771-2.234-4.324-4.344l-0.2,2.152
	c0.006,1.308,1.067,2.369,2.375,2.375L6.176,62.453z M13.592,55.021l0.201-2.152c-0.007-1.307-1.068-2.369-2.375-2.375l-2.149,0.184
	C11.377,51.251,13.038,52.912,13.592,55.021z M10.39,57.881c0.196-0.396,0.307-0.843,0.307-1.315c0-0.472-0.11-0.919-0.306-1.314
	c-0.29-0.587-0.767-1.063-1.353-1.354c-0.396-0.195-0.844-0.306-1.315-0.306c-0.473,0-0.92,0.109-1.315,0.306
	c-0.587,0.289-1.063,0.767-1.354,1.353c-0.195,0.396-0.307,0.844-0.307,1.315c0,0.437,0.093,0.848,0.262,1.221l0.033,0.07
	c0.302,0.61,0.778,1.088,1.364,1.377C6.803,59.43,7.25,59.54,7.723,59.54c0.472,0,0.918-0.11,1.314-0.307
	C9.623,58.944,10.101,58.467,10.39,57.881z M13.61,58.112c-0.572,2.107-2.235,3.768-4.345,4.321l2.152,0.203
	c1.308-0.006,2.369-1.067,2.375-2.375L13.61,58.112z M14.444,56.565c0,0.44-0.033,0.969-0.067,1.413l-0.015,0.187l-0.228-0.017
	l0.178,2.091c0,1.616-1.301,2.917-2.916,2.917l-2.092-0.178l0.016,0.227L9.135,63.22c-0.444,0.035-0.973,0.068-1.412,0.068
	c-0.44,0-0.97-0.033-1.414-0.068l-0.187-0.015l0.017-0.227l-2.091,0.178c-1.615,0-2.917-1.3-2.917-2.917l0.179-2.091l-0.228,0.016
	l-0.015-0.186C1.032,57.533,1,57.006,1,56.565s0.032-0.969,0.067-1.413l0.015-0.187l0.227,0.017l-0.178-2.091
	c0-1.616,1.301-2.916,2.917-2.916l2.092,0.178l-0.016-0.228l0.186-0.015c0.444-0.035,0.973-0.067,1.413-0.067
	c0.439,0,0.968,0.032,1.412,0.067l0.187,0.015l-0.016,0.227l2.09-0.178c1.616,0,2.917,1.301,2.917,2.917l-0.179,2.092l0.229-0.017
	l0.015,0.187C14.411,55.598,14.444,56.126,14.444,56.565z"/>
<path fill="#2B2E32" d="M14.034,15.763H1.743c-0.599,0-1.085,0.486-1.085,1.085v8.675c0,0.6,0.486,1.084,1.085,1.084h7.116
	l2.494,2.495c0.063,0.063,0.15,0.042,0.15-0.058v-2.437h2.53c0.599,0,1.084-0.485,1.084-1.084v-8.675
	C15.118,16.249,14.633,15.763,14.034,15.763z M9.889,23.667H3.945v-1h5.944V23.667z M11.944,21.556h-8v-1h8V21.556z M11.944,19.444
	h-8v-1h8V19.444z"/>
</svg>
